<?xml version="1.0" standalone="no"?>
<!DOCTYPE svg PUBLIC "-//W3C//DTD SVG 1.1//EN" "http://www.w3.org/Graphics/SVG/1.1/DTD/svg11.dtd" >
<!--
2013-9-30: Created.
-->
<svg>
<metadata>
Created by iconfont
</metadata>
<defs>

<font id="iconfont" horiz-adv-x="1024" >
  <font-face
    font-family="iconfont"
    font-weight="500"
    font-stretch="normal"
    units-per-em="1024"
    ascent="896"
    descent="-128"
  />
    <missing-glyph />
    
    <glyph glyph-name="x" unicode="x" horiz-adv-x="1001"
d="M281 543q-27 -1 -53 -1h-83q-18 0 -36.5 -6t-32.5 -18.5t-23 -32t-9 -45.5v-76h912v41q0 16 -0.5 30t-0.5 18q0 13 -5 29t-17 29.5t-31.5 22.5t-49.5 9h-133v-97h-438v97zM955 310v-52q0 -23 0.5 -52t0.5 -58t-10.5 -47.5t-26 -30t-33 -16t-31.5 -4.5q-14 -1 -29.5 -0.5
t-29.5 0.5h-32l-45 128h-439l-44 -128h-29h-34q-20 0 -45 1q-25 0 -41 9.5t-25.5 23t-13.5 29.5t-4 30v167h911zM163 247q-12 0 -21 -8.5t-9 -21.5t9 -21.5t21 -8.5q13 0 22 8.5t9 21.5t-9 21.5t-22 8.5zM316 123q-8 -26 -14 -48q-5 -19 -10.5 -37t-7.5 -25t-3 -15t1 -14.5
t9.5 -10.5t21.5 -4h37h67h81h80h64h36q23 0 34 12t2 38q-5 13 -9.5 30.5t-9.5 34.5q-5 19 -11 39h-368zM336 498v228q0 11 2.5 23t10 21.5t20.5 15.5t34 6h188q31 0 51.5 -14.5t20.5 -52.5v-227h-327z" />
    

    
    <glyph glyph-name="shezhi" unicode="&#58898;" d="M513.7533 497.2293c-98.5783 0-178.4905-79.9108-178.4905-178.483 0-98.5742 79.9122-178.483 178.4905-178.483s178.4905 79.9088 178.4905 178.483C692.2437 417.3195 612.3316 497.2293 513.7533 497.2293zM513.7533 219.5905c-54.7642 0-99.1609 44.3929-99.1609 99.1568 0 54.7629 44.3968 99.1568 99.1609 99.1568 54.7652 0 99.1609-44.3949 99.1609-99.1568C612.9142 263.9824 568.5184 219.5905 513.7533 219.5905zM899.2241 408.2656c-10.3444 10.2051-24.5024 24.2276-26.9029 31.9363-2.7133 8.7141 0.7535 28.6995 3.5437 44.7557 5.7513 33.0566 12.2582 70.5502-9.1232 101.1874-21.5753 30.8691-59.5741 36.1945-90.0977 40.4736-15.3782 2.1495-34.4721 4.8407-41.3287 10.0322-6.6238 5.0156-14.8366 22.9295-21.4404 37.3387-13.3625 29.1842-30.0199 65.4956-65.2675 77.4255-7.0885 2.4014-14.6027 3.6215-22.3508 3.6215-25.9305 0-49.2517-13.0931-71.7943-25.7395-14.0211-7.8617-31.452-17.6221-40.7101-17.6221-9.2581 0-26.688 9.7614-40.6921 17.6221-22.5437 12.6464-45.8818 25.7395-71.8143 25.7395-7.7271 0-15.2613-1.2192-22.3488-3.6405-35.2296-11.9109-51.885-48.2223-65.2675-77.4055-6.6058-14.3892-14.8166-32.3231-21.4404-37.3387-6.8367-5.1915-25.9505-7.8827-41.3107-10.0322-30.5416-4.2601-68.5404-9.5865-90.0977-40.4736-21.4014-30.6372-14.8945-68.1308-9.1402-101.1874 2.7902-16.0551 6.275-36.0416 3.5437-44.7557-2.4015-7.7088-16.5595-21.7313-26.8809-31.9363-22.6606-22.4258-50.8597-50.3319-50.8597-89.5093 0-39.2084 28.1991-67.1055 50.8597-89.5313 10.3204-10.2271 24.4794-24.2456 26.8809-31.9144 2.7313-8.7161-0.7535-28.7015-3.5437-44.7756-5.7533-33.0386-12.2602-70.5322 9.1402-101.1694 21.5573-30.907 59.5561-36.2144 90.0977-40.4736 15.3602-2.1695 34.4541-4.8427 41.3107-10.0322 6.6238-5.0336 14.8346-22.9684 21.4404-37.3747 13.3825-29.1682 30.0179-65.4596 65.2855-77.3905 7.0905-2.4014 14.6047-3.6405 22.3308-3.6405 25.9325 0 49.2517 13.0931 71.8143 25.7196 14.0031 7.8627 31.434 17.662 40.6921 17.662 9.2581 0 26.688-9.7984 40.7101-17.662 22.5437-12.6264 45.8638-25.7196 71.7943-25.7196 7.7481 0 15.2633 1.2392 22.3508 3.6405 35.2476 11.9309 51.905 48.2223 65.2675 77.3905 6.6038 14.4052 14.8166 32.3411 21.4404 37.3747 6.8556 5.1895 25.9505 7.8627 41.3107 9.9932 30.5416 4.2991 68.5404 9.6065 90.0957 40.5135 21.4014 30.6372 14.8745 68.0928 9.1422 101.1694-2.7902 16.0731-6.257 36.0216-3.5437 44.7756 2.3995 7.6688 16.5575 21.6873 26.9029 31.9144 22.6386 22.4258 50.8377 50.3219 50.8377 89.5313C950.0628 357.9337 921.8627 385.8408 899.2241 408.2656zM843.4446 285.6307c-22.5627-22.2999-39.1231-39.9799-46.9072-64.847-7.7481-25.041-4.4162-49.6753 1.1802-81.9215 2.1316-12.2577 6.0432-34.7804 4.1074-41.5988-6.315-3.6395-25.5657-6.3517-36.101-7.8437-25.7406-3.5616-54.9071-7.6108-78.4191-25.4078-22.4287-17.0634-34.1653-42.6431-45.553-67.4902-4.5141-9.8583-12.4921-27.2685-18.3393-34.1439-7.3423 2.2095-21.2875 10.0132-30.3517 15.0858-23.1443 12.9752-49.3686 27.6942-79.3096 27.6942-29.9799 0-56.2602-14.757-79.6204-27.8671-8.8114-4.9397-22.7355-12.7254-30.0179-14.9329-5.8503 6.8773-13.8492 24.3055-18.3983 34.2608-11.3478 24.7492-23.0863 50.3299-45.65 67.4902-23.2212 17.5841-52.2338 21.6693-78.2262 25.3508-10.5153 1.452-29.6312 4.1252-36.0611 7.7457-1.9578 7.4769 1.9178 29.6319 4.0654 41.9845 5.5585 32.0912 8.8903 56.7635 1.0473 81.8245-7.6891 24.5554-24.2286 42.2374-46.8122 64.6052-7.4553 7.397-27.3066 27.0357-27.3066 33.1365 0 6.0779 19.8524 25.7296 27.3066 33.1066 21.8471 21.5924 39.1611 40.0678 46.8122 64.6242 7.863 25.089 4.5121 49.7613-1.1043 82.0644-2.1296 12.2777-6.0611 34.8474-4.1254 41.6837 6.332 3.6605 25.6037 6.3437 36.218 7.8257 25.7386 3.6016 54.9451 7.6888 78.2043 25.3508 22.4857 17.0335 34.2042 42.5881 45.65 67.5202 4.5321 9.8663 12.512 27.2875 18.3603 34.1818 7.3813-2.2175 21.3234-10.0402 30.1148-14.9808 23.2042-13.0232 49.4855-27.7802 79.5434-27.7802 29.9999 0 56.3022 14.747 79.5804 27.7902 8.7914 4.9397 22.7375 12.7633 30.0799 14.9808 5.8463-6.9033 13.8252-24.3055 18.3393-34.1818 11.3878-24.8072 23.1443-50.4668 45.6879-67.5302 23.3362-17.682 52.5056-21.7592 78.2043-25.3508 10.5173-1.471 29.6332-4.1552 36.105-7.7757 1.9138-7.5439-1.9398-29.6319-4.0494-41.7547-5.5785-32.1372-8.9283-56.8285-1.1243-81.9255 7.7091-24.7412 25.0621-43.2167 46.8692-64.7341 7.4573-7.395 27.2896-27.0357 27.2896-33.1145C870.7332 312.6564 850.9208 293.0277 843.4446 285.6307z"  horiz-adv-x="1000" />

    
    <glyph glyph-name="renzheng" unicode="&#58948;" d="M862.85 224.2793c-57.7915-84.1615-137.2324-185.2467-206.5838-244.9398-50.2825-43.2722-143.2187-110.2428-216.4214-97.9784-188.5952 31.5986-148.436 493.4523-275.4529 597.6402-58.0864 16.8407-86.0959-72.2217-118.0396-19.5922-50.1873 41.7772 48.3635 114.731 98.3665 156.757 61.8322 51.9475 134.7308 125.9407 216.4265 93.7841 159.0856-62.6371 45.0499-442.2748 196.7473-524.8717 78.3933 62.8797 166.2403 166.8188 147.5553 293.9228-14.849 42.4223-86.6755 28.9495-127.8812 19.5932-2.1094 193.835 381.4902 342.4174 413.1707 78.3718C1007.9498 415.3249 862.85 224.2793 862.85 224.2793z"  horiz-adv-x="1024" />

    
    <glyph glyph-name="you" unicode="&#58897;" d="M380.7109-68.0553l358.5516 358.5679L380.287 649.5014h-94.491648l-0.4055-0.4096 358.5587-358.5782L285.4011-68.0553H380.710912z"  horiz-adv-x="1024" />

    
    <glyph glyph-name="bianji" unicode="&#58980;" d="M323.608576 153.274112 366.068736 110.696192 468.333568 147.995392 360.828928 255.380224ZM513.3056 748.68096c-248.041472 0-449.069056-201.05216-449.069056-449.072128 0-247.994368 201.028608-449.069056 449.069056-449.069056 247.994368 0 449.07008 201.074688 449.07008 449.069056C962.37568 547.6288 761.299968 748.68096 513.3056 748.68096zM490.842112 125.488896l-0.239616 0.279552c-1.241088-1.040384-2.60096-1.999872-4.200448-2.56l-206.849024-75.480064c-5.398528-1.918976-11.474944-0.638976-15.471616 3.519488-4.07552 3.997696-5.397504 10.075136-3.398656 15.429632l75.399168 206.773248c0.562176 1.557504 1.440768 2.878464 2.51904 4.158464l-0.161792 0.198656L524.184576 463.509248c20.150272-20.108288 36.739072-36.658176 36.739072-36.658176l-145.522688-145.28512c-2.358272-2.279424-3.398656-5.276672-3.398656-8.31488 0-2.998272 1.040384-5.998592 3.398656-8.316928 2.280448-2.23744 5.27872-3.477504 8.395776-3.477504 3.117056 0 6.07744 1.240064 8.353792 3.477504L577.596416 410.138368l45.693952-45.617152L478.487552 219.87712c-4.557824-4.595712-4.557824-12.071936 0-16.668672 2.238464-2.200576 5.27872-3.438592 8.3968-3.438592 3.15904 0 6.115328 1.238016 8.354816 3.398656 0 0.039936 144.763904 144.643072 144.763904 144.643072s21.269504-21.269504 36.54144-36.620288L490.842112 125.488896zM751.264768 385.79072l-57.969664-57.929728c-29.78304 29.744128-98.985984 98.99008-152.357888 152.260608l58.047488 58.008576c20.789248 20.769792 54.771712 20.809728 75.522048 0l76.75904-76.8C772.054016 440.561408 772.015104 406.65984 751.264768 385.79072z"  horiz-adv-x="1024" />

    
    <glyph glyph-name="dian" unicode="&#58978;" d="M352.328 287.653c0-88.364 71.634-159.998 159.998-159.998s159.998 71.634 159.998 159.998c0 88.364-71.634 159.998-159.998 159.998-88.364 0-159.998-71.634-159.998-159.998z"  horiz-adv-x="1024" />

    
    <glyph glyph-name="erweima" unicode="&#58946;" d="M152.075264 688.488192c101.716992 0 203.435008 0 305.152 0 31.031296-3.073024 23.552-57.696256 23.552-93.184 0-63.742976 0-105.755648 0-168.96 0-36.721664 6.915072-81.729536-17.408-92.16-15.840256-6.793216-58.351616-2.048-78.848-2.048-56.271872 0-102.012928 0-161.792 0-37.400576 0-88.469504-8.927232-94.208 23.552 0 103.083008 0 206.164992 0 309.248C132.70528 676.455168 140.061696 684.799744 152.075264 688.488192zM194.059264 618.856192c0-73.387008 0-146.772992 0-220.16 73.387008 0 146.772992 0 220.16 0 0 74.411008 0 148.820992 0 223.232-73.044992 0-146.091008 0-219.136 0C193.890304 621.75616 193.9712 620.309248 194.059264 618.856192zM561.675264 688.488192c101.716992 0 203.435008 0 305.152 0 12.447744-4.61824 21.001216-13.1328 23.552-27.648 0-100.352 0-200.705024 0-301.056-2.792448-12.510208-9.324544-23.196672-21.504-26.624-19.904512-5.600256-52.977664-1.024-76.8-1.024-56.127488 0-102.14912 0-156.672 0-23.626752 0-58.642432-4.97664-77.824 1.024-27.077632 8.471552-19.456 61.329408-19.456 98.304 0 49.115136 0 106.445824 0 157.696C538.123264 631.851776 528.75264 682.523392 561.675264 688.488192zM603.659264 618.856192c0-73.387008 0-146.772992 0-220.16 73.387008 0 146.772992 0 220.16 0 0 74.411008 0 148.820992 0 223.232-73.044992 0-146.091008 0-219.136 0C603.490304 621.75616 603.5712 620.309248 603.659264 618.856192zM294.411264 554.344192c30.661632 5.786624 54.774784-14.930944 55.296-43.008 0.687104-37.025792-37.129216-57.365504-66.56-41.984C249.47712 486.949632 251.693056 546.28224 294.411264 554.344192zM704.011264 554.344192c72.223744 13.493248 70.839296-100.886528 0-89.088C658.929664 472.76416 657.47456 545.649408 704.011264 554.344192zM455.179264-83.607808c-100.692992 0-201.385984 0-302.08 0-12.540928 3.843072-21.01248 11.75552-24.576 24.576 0 102.740992 0 205.483008 0 308.224 2.982912 9.019392 9.868288 19.542016 20.48 22.528 20.0448 5.640192 52.7872 1.024 76.8 1.024 55.189504 0 105.184256 0 156.672 0 23.154688 0 56.85248 5.168128 77.824-1.024 28.371968-8.37632 20.48-60.376064 20.48-97.28 0-56.7296 0-105.121792 0-162.816C480.779264-28.206336 489.356288-80.051456 455.179264-83.607808zM194.059264 203.112192c0-73.388032 0-146.772992 0-220.16 73.387008 0 146.772992 0 220.16 0 0 74.411008 0 148.820992 0 223.232-73.044992 0-146.091008 0-219.136 0C193.890304 206.01216 193.9712 204.565248 194.059264 203.112192zM890.379264 245.096192c0-28.672 0-57.344 0-86.016-2.388992-29.014016-0.342016-62.462976-1.024-93.184-72.704 0-145.408 0-218.112 0 0 16.724992 0 33.451008 0 50.176-20.481024 2.387968-45.395968 0.342016-67.584 1.024-2.388992-64.854016-0.340992-134.142976-1.024-200.704-13.312 0-26.624 0-39.936 0-34.337792 6.882304-24.576 58.407936-24.576 99.328 0 57.078784 0 104.042496 0 158.72 0 23.865344-4.830208 59.64288 1.024 78.848 6.984704 22.913024 37.274624 19.456 67.584 19.456 51.24096 0 96.891904 0 148.48 0 0-45.396992 0-90.795008 0-136.192 22.868992 0 45.739008 0 68.608 0 0.681984 45.056-1.364992 92.841984 1.024 136.192C857.858048 274.697984 888.439808 274.216704 890.379264 245.096192zM299.531264 139.624192c32.740352 3.623936 59.804672-27.841536 47.104-62.464-17.604608-47.98976-101.778432-29.953024-86.016 30.72C264.976384 124.651264 277.561344 137.192192 299.531264 139.624192zM744.971264-83.607808c-24.576 0-49.152 0-73.728 0 0.681984 26.284032-1.363968 55.294976 1.024 79.872 24.235008 0 48.468992 0 72.704 0C744.971264-30.359808 744.971264-56.983808 744.971264-83.607808zM890.379264-3.735808c0-17.408 0-34.816 0-52.224-2.84672-14.56128-11.36128-23.45472-24.576-27.648-17.408 0-34.816 0-52.224 0 0.681984 26.284032-1.363968 55.294976 1.024 79.872C839.862272-3.735808 865.120256-3.735808 890.379264-3.735808z"  horiz-adv-x="1024" />

    
    <glyph glyph-name="xia" unicode="&#58925;" d="M814.479704 492.436824c9.572398 0 12.391722-6.01704 6.263914-13.371542L522.983084 121.672522c-6.127809-7.355525-16.15355-7.355525-22.281359 0L202.94119 479.064258c-6.127809 7.354502-3.308484 13.371542 6.263914 13.371542L814.479704 492.435801z"  horiz-adv-x="1024" />

    
    <glyph glyph-name="phone" unicode="&#58882;" d="M755.609-132.928h-487.214c-28.856 0-52.204 20.154-52.204 44.996v780.004c0 24.841 23.348 44.996 52.204 44.996h487.214c28.852 0 52.201-20.154 52.201-44.996v-780.004c-0.001-24.842-23.349-44.996-52.201-44.996zM511.999-87.932c19.203 0 34.803 13.457 34.803 30.008 0 16.55-15.6 30.007-34.803 30.007-19.2 0-34.799-13.457-34.799-30.007-0.001-16.551 15.599-30.008 34.799-30.008zM755.609 647.076h-487.215v-629.996h487.214l-0 629.996z"  horiz-adv-x="1024" />

    
    <glyph glyph-name="shang" unicode="&#58926;" d="M209.217511 108.30098c-9.572006 0-12.391215 6.018064-6.263657 13.371542L500.702188 479.064258c6.127558 7.354502 16.152888 7.354502 22.280446 0l297.748335-357.391736c6.127558-7.354502 3.308349-13.371542-6.263657-13.371542L209.217511 108.30098z"  horiz-adv-x="1024" />

    
    <glyph glyph-name="quanbu" unicode="&#58927;" d="M936.475598 475.488827 512.827855 687.31014 89.180112 475.488827l423.647743-211.82643L936.475598 475.488827 936.475598 475.488827zM512.827855 630.758146 823.325561 475.482687 512.827855 320.236903 202.330148 475.487803 512.827855 630.758146 512.827855 630.758146zM879.322923 347.261397 879.322923 347.261397 511.171122 164.261503 143.912667 347.707558 143.912667 347.707558 141.647067 346.574758 87.523379 319.513426 511.171122 107.686996 934.818865 319.513426ZM879.322923 188.750243 879.322923 188.750243 511.171122 5.751373 143.912667 189.197428 143.912667 189.197428 141.647067 188.064628 87.523379 161.003296 511.171122-50.823134 934.818865 161.003296Z"  horiz-adv-x="1024" />

    
    <glyph glyph-name="shouqi" unicode="&#58912;" d="M537.555 405.203c-3.86 3.869-9.584 4.744-14.313 2.652-4.655 1.899-10.189 0.966-13.958-2.802l-181.738-181.6c-5.034-5.010-5.034-13.147 0-18.158l27.26-27.248c5.010-5.010 13.147-5.010 18.181 0l150.446 150.341 150.65-150.478c5.034-5.022 13.17-5.022 18.204 0l27.306 27.281c5.010 5.022 5.010 13.159 0 18.182l-182.038 181.828zM511.949 739.109c-246.968 0-447.185-200.206-447.185-447.185 0-246.968 200.217-447.185 447.185-447.185s447.185 200.217 447.185 447.185c0 246.979-200.217 447.185-447.185 447.185zM511.949-108.188c-220.972 0-400.113 179.141-400.113 400.113s179.141 400.113 400.113 400.113 400.113-179.141 400.113-400.113-179.141-400.113-400.113-400.113z"  horiz-adv-x="1024" />

    
    <glyph glyph-name="erweima1" unicode="&#58947;" d="M256 640l73.142857 0 0-73.142857-73.142857 0 0 73.142857ZM841.142857 54.857143l73.142857 0 0-73.142857-73.142857 0 0 73.142857ZM841.142857 201.142857 768 201.142857 768 274.285714 768 347.428571 694.857143 347.428571 621.714286 347.428571 548.571429 347.428571 548.571429 274.285714 548.571429-18.285714 621.714286-18.285714 621.714286 274.285714 694.857143 274.285714 694.857143 201.142857 694.857143 128 768 128 841.142857 128 914.285714 128 914.285714 201.142857 914.285714 347.428571 841.142857 347.428571ZM694.857143 54.857143l73.142857 0 0-73.142857-73.142857 0 0 73.142857ZM109.714286 420.571429l365.714286 0L475.428571 786.285714 109.714286 786.285714 109.714286 420.571429zM182.857143 713.142857l219.428571 0 0-219.428571L182.857143 493.714286 182.857143 713.142857zM256 201.142857l73.142857 0 0-73.142857-73.142857 0 0 73.142857ZM109.714286-18.285714l365.714286 0L475.428571 347.428571 109.714286 347.428571 109.714286-18.285714zM182.857143 274.285714l219.428571 0 0-219.428571L182.857143 54.857143 182.857143 274.285714zM694.857143 640l73.142857 0 0-73.142857-73.142857 0 0 73.142857ZM548.571429 786.285714l0-365.714286 365.714286 0L914.285714 786.285714 548.571429 786.285714zM841.142857 493.714286 621.714286 493.714286 621.714286 713.142857l219.428571 0L841.142857 493.714286z"  horiz-adv-x="1024" />

    
    <glyph glyph-name="manager" unicode="&#58971;" d="M340.258 244.76c57.266-78.648 145.014-84.76 170.544-84.76h2.396c25.53 0 113.276 6.112 170.542 84.758 22.548 30.966 45.498 87.012 55.474 112.858 33.934 40.524 46.802 79.014 38.252 114.54-4.308 17.896-13.962 33.558-27.256 45.020 5.278 43.008 4.998 91.7-10.594 134.504-22.128 60.748-62.122 103.65-118.864 127.51-44.658 18.782-86.994 20.81-103.124 20.81h-2.398c-1.268 0-2.35-0.012-3.228-0.030-0.88 0.018-1.964 0.030-3.232 0.030h-2.396c-16.128 0-58.464-2.028-103.126-20.81-56.744-23.862-96.734-66.762-118.864-127.512-15.592-42.806-15.87-91.494-10.594-134.502-13.292-11.462-22.948-27.124-27.256-45.022-8.55-35.526 4.318-74.014 38.254-114.538 9.976-25.846 32.92-81.892 55.47-112.856zM321.068 471.976c18.556 6.95 31.012-20.712 35.546-33.066-5.164 15.928-19.194 63.18-21.556 112.96 16.708 23.356 50.050 62.498 89.612 68.878 0 0 85.52-102.268 261.342-100.272-5.048-37.208-14.568-69.056-18.626-81.568 4.538 12.354 16.99 40.016 35.546 33.066 11.208-4.198 30.144-26.572-19.504-80.944 0 0-28.334-76.892-51.424-108.6-34.032-46.734-86.886-58.43-118.804-58.43-0.302 0.018-0.718 0.042-1.2 0.078-0.48-0.036-0.896-0.060-1.198-0.078-31.92 0-84.778 11.696-118.806 58.432-23.090 31.708-51.424 108.6-51.424 108.6-49.648 54.372-30.71 76.746-19.504 80.944zM577.050 95.58l-29.688 32.42h-70.728l-29.688-32.42c0 0 16.966-36.18 44.534-50.244l-44.534-112.562c0 0 32.558-46.422 65.054-58.384 32.496 11.962 65.052 58.384 65.052 58.384l-44.532 112.562c27.562 14.064 44.53 50.244 44.53 50.244zM975.104 9.986c-53.946 69.064-294.146 118.014-294.146 118.014 31.812-182.644-168.958-293.71-168.958-293.71s-200.77 111.066-168.96 293.71c0 0-240.202-48.95-294.146-118.014-57.164-73.19-50.436-145.358-46.196-175.506 4.242-30.146 11.652-48.432 60.424-58.48h897.752c48.774 10.048 56.184 28.334 60.426 58.48 4.242 30.148 10.97 102.316-46.196 175.506z"  horiz-adv-x="1025" />

    
    <glyph glyph-name="zhankai" unicode="&#58913;" d="M517.44 756.384c-265.152 0-480-214.848-480-480 0-265.088 214.848-480 480-480s480 214.848 480 480S782.464 756.384 517.44 756.384zM517.44-139.552c-229.76 0-416 186.304-416 416 0 229.76 186.24 416 416 416s416-186.24 416-416C933.376 46.688 747.136-139.552 517.44-139.552zM772.416 407.52c-12.416 9.472-28.736 10.368-39.232-1.152l-215.872-236.672L301.504 406.368C296.128 412.448 288.768 415.456 281.408 415.456c-6.848 0-13.76-2.624-19.072-7.872C233.088 378.592 249.856 366.624 255.552 360.352l241.664-265.024c10.496-11.52 29.888-11.52 40.384 0l239.872 263.68C783.104 365.216 798.976 387.232 772.416 407.52z"  horiz-adv-x="1024" />

    
    <glyph glyph-name="shanchu" unicode="&#58973;" d="M909.718069 672.100414l-75.987862-0.03531c-1.271172 0.123586-2.454069 0.388414-3.813517 0.388414s-2.577655-0.282483-3.884138-0.406069L564.594759 671.923862l0.088276 46.786207c0 23.216552-19.350069 42.01931-42.566621 42.01931-3.742897 0-6.920828-0.317793-10.20469-0.564966-3.54869 0.247172-6.938483 0.564966-11.034483 0.564966-23.198897 0-42.01931-18.802759-42.01931-42.01931l0.194207-46.839172L204.093793 671.74731c-2.983724 0.812138-6.161655 1.377103-9.675034 1.377103-3.531034 0-6.744276-0.564966-9.780966-1.394759L109.550345 671.712c-23.198897 0-39.318069-9.304276-39.318069-32.520828 0-23.198897 16.101517-35.945931 39.318069-35.945931l48.728276 0.017655 0.353103-681.207172c1.889103-44.57931 35.557517-80.189793 80.648828-80.189793l42.036966 0 0-0.370759 462.318345 0.282483 0 0.088276L785.655172-158.134069c46.344828 0 79.36 37.499586 79.465931 83.809103L864.750345 603.598345l44.967724 0.017655c23.198897 0 42.01931 12.729379 42.01931 35.945931C951.737379 662.778483 932.934621 672.100414 909.718069 672.100414zM794.07669-4.180966c0.282483-55.225379-10.292966-75.528828-47.633655-81.708138L268.888276-86.171586c-23.340138 4.996414-34.692414 17.019586-39.335724 42.707862l-0.335448 646.761931 564.841931 0.282483 0.353103-689.416828L794.07669-4.180966zM406.068966 531.300414c-19.508966 0-35.310345-15.801379-35.310345-35.310345l0-476.689655c0-19.508966 15.801379-35.310345 35.310345-35.310345 19.49131 0 35.310345 15.801379 35.310345 35.310345l0 476.689655C441.37931 515.499034 425.560276 531.300414 406.068966 531.300414zM617.931034 531.300414c-19.508966 0-35.310345-15.801379-35.310345-35.310345l0-476.689655c0-19.508966 15.801379-35.310345 35.310345-35.310345 19.49131 0 35.310345 15.801379 35.310345 35.310345l0 476.689655C653.241379 515.499034 637.422345 531.300414 617.931034 531.300414z"  horiz-adv-x="1024" />

    
    <glyph glyph-name="fuli" unicode="&#59015;" d="M609.336374 524.801952l-30.964222 0c4.746094 34.059724-0.732687 69.895907-17.08205 109.0036-2.833535 6.78452-5.916756 13.328563-9.251711 19.633153 22.988574 26.500561 52.896744 39.140439 76.722382 29.42824 32.752961-13.33982 41.523719-59.608609 19.611663-108.60758C638.754381 552.755608 624.766808 535.861846 609.336374 524.801952zM501.294682 246.472899l0-353.263719L297.900296-106.79082c-23.64656 0-42.820248 18.754133-42.820248 41.890063L255.080048 246.472899 501.294682 246.472899zM501.294682 481.981704l0-192.688557L169.441599 289.293147c-23.64656 0-42.820248 18.754133-42.820248 41.889039l0 108.920712c0 23.124673 22.737864 41.878806 46.384423 41.878806L501.294682 481.981704zM540.548708 524.801952l-7.568373 0-0.564865 0.627287-0.438998-0.627287L497.729483 524.801952 394.674363 524.801952c-6.868431 10.203386-12.983709 21.472034-18.064424 33.641191-27.79709 66.466808-14.385639 130.110313 29.961382 147.464563 44.345997 17.353227 102.815667-18.179035 130.612757-84.635609 14.259772-34.101679 17.687848-68.620867 11.645225-96.470145L540.548708 524.801952zM544.113907 289.293147l0 192.688557 310.443471 0c23.64656 0 42.820248-18.754133 42.820248-41.878806l0-108.920712c0-23.133883-19.172665-41.889039-42.820248-41.889039L544.113907 289.293147zM768.917906 246.472899l0-306.199821c0-23.14514-19.172665-47.063899-42.820248-47.063899l-181.984774 0L544.112883 246.472899 768.917906 246.472899zM212.260823 246.472899l0-340.237031c0-30.840402 25.561166-55.845912 57.090253-55.845912l485.296825 0c31.530111 0 57.090253 25.006534 57.090253 55.845912L811.738154 246.472899l71.369468 0c31.530111 0 57.08923 25.006534 57.08923 55.844889L940.196851 468.95604c0 30.849612-25.560142 55.845912-57.08923 55.845912L646.166187 524.801952c13.726629 14.426571 25.549909 31.989575 34.226522 51.392484 28.173666 62.995753 11.007705 112.046912-39.934524 132.807748-38.229696 15.576767-77.151148 5.331425-106.118899-27.358091-39.390125 53.555753-96.92961 80.548524-143.658887 62.264089-59.128679-23.134907-78.594009-105.659435-43.48949-189.594079 4.338818-10.359952 9.408277-20.228717 15.011902-29.512151L140.891356 524.801952c-31.530111 0-57.08923-24.995277-57.08923-55.845912L83.802126 302.318812c0-30.839379 25.560142-55.844889 57.08923-55.844889L212.260823 246.473923z"  horiz-adv-x="1024" />

    
    <glyph glyph-name="xingbie" unicode="&#58884;" d="M353.715361 254.620182c94.614617 13.115312 167.482118 94.279401 167.482118 192.497586 0 107.394713-87.030363 194.425076-194.425076 194.425076-107.352811 0-194.425076-87.030363-194.425076-194.425076 0-98.218185 72.867501-179.382274 167.52402-192.497586l0-93.60897L173.95597 161.011212l0-53.76021L299.871348 107.251003l0-125.95728 53.802111 0L353.673459 107.209101l125.915378 0 0 53.76021L353.715361 160.96931 353.715361 254.620182zM186.233243 447.117767c0 77.686226 62.894836 140.581062 140.53916 140.581062 77.686226 0 140.581062-62.936738 140.581062-140.581062s-62.894836-140.581062-140.581062-140.581062C249.128079 306.536705 186.233243 369.473443 186.233243 447.117767zM502.760619 150.745233c0.041902-107.394713 87.114166-194.425076 194.550782-194.383174 107.394713 0.041902 194.383174 87.114166 194.341272 194.50888-0.041902 98.218185-72.951305 179.340372-167.565922 192.455684l-0.083804 197.274409 51.4137-51.455602 38.046976 38.046976L723.919142 616.653081l0 0 0 0L696.976185 643.554137l-116.277928-116.403634 38.046976-38.005074 51.455602 51.497504 0.083804-197.274409C575.586218 330.169408 502.718717 248.963418 502.760619 150.745233zM837.766757 150.870939c0.083804-77.686226-62.852934-140.622964-140.53916-140.664866-77.686226-0.041902-140.581062 62.894836-140.622964 140.53916 0 77.644324 62.852934 140.581062 140.53916 140.622964C774.788117 291.452001 837.724855 228.515263 837.766757 150.870939z"  horiz-adv-x="1024" />

    
    <glyph glyph-name="dongtaiyemianxiaotubiao04" unicode="&#58931;" d="M512 812C229.29408 812 0 582.74688 0 300S229.29408-212 512-212C794.74688-212 1024 17.25312 1024 300S794.74688 812 512 812M657.08032 3.2448l-210.944 173.13792L305.31584 176.38272l0 247.3984 140.94336 0 210.82112 173.13792L657.08032 3.2448z"  horiz-adv-x="1024" />

    
    <glyph glyph-name="dengpao" unicode="&#58958;" d="M729.934544 611.285652c-55.079456 55.079456-128.312364 85.413322-206.206432 85.413322-77.895091 0-151.126976-30.333866-206.206432-85.413322s-85.413322-128.311341-85.413322-206.206432c0-52.017724 13.873985-103.089913 40.121789-147.69276 22.929222-38.963407 54.735625-72.190159 92.544743-96.821139l0-142.249795c0-37.058011 30.147624-67.206658 67.205635-67.206658l183.143157 0c37.058011 0 67.206658 30.148647 67.206658 67.206658L682.33034 160.33303c37.901215 24.613584 69.787436 57.850569 92.784196 96.860025 26.321482 44.650943 40.234353 95.789647 40.234353 147.886165C815.347866 482.974311 785.015024 556.206196 729.934544 611.285652zM615.122659 2.275201 431.980525 2.275201c-8.844435 0-16.040325 7.195889-16.040325 16.041348l0 60.375066 215.223806 0 0-60.375066C631.164007 9.471091 623.968118 2.275201 615.122659 2.275201zM731.036645 283.176846c-21.070898-35.743062-51.188846-65.615417-87.09973-86.390579l-12.771885-7.389294 0-59.541071L415.940201 129.855902l0 59.722196-12.738116 7.396457c-35.824927 20.796652-65.865103 50.66082-86.874603 86.36295-21.623483 36.743856-33.05279 78.841649-33.05279 121.741715 0 64.227814 25.01165 124.611066 70.427002 170.027441 45.416376 45.415352 105.799628 70.427002 170.027441 70.427002 64.227814 0 124.611066-25.01165 170.027441-70.427002 45.415352-45.416376 70.427002-105.799628 70.427002-170.027441C764.182556 362.114686 752.720503 319.960611 731.036645 283.176846zM612.406804-81.013737 435.048397-81.013737c-14.128789 0-25.582655-11.453866-25.582655-25.582655s11.453866-25.582655 25.582655-25.582655l177.358407 0c14.129812 0 25.582655 11.453866 25.582655 25.582655S626.536616-81.013737 612.406804-81.013737zM218.350007 621.997622"  horiz-adv-x="1024" />

    
    <glyph glyph-name="yuanquanxuanzhong" unicode="&#58914;" d="M922.660964 473.269275c-22.440082 53.054333-54.561663 100.69947-95.473445 141.611252s-88.555895 73.033363-141.610228 95.473445c-54.937217 23.236214-113.285113 35.017538-173.423795 35.017538-60.138682 0-118.487601-11.781324-173.423795-35.017538-53.054333-22.440082-100.69947-54.561663-141.611252-95.473445s-73.033363-88.556918-95.473445-141.611252c-23.236214-54.936193-35.017538-113.285113-35.017538-173.423795s11.781324-118.487601 35.017538-173.422771c22.440082-53.055356 54.561663-100.69947 95.473445-141.611252s88.556918-73.033363 141.611252-95.473445c54.936193-23.236214 113.285113-35.018561 173.423795-35.018561 60.138682 0 118.486578 11.782348 173.423795 35.018561 53.054333 22.440082 100.698446 54.561663 141.610228 95.473445s73.033363 88.555895 95.473445 141.611252c23.236214 54.936193 35.018561 113.284089 35.018561 173.422771S945.897178 418.333082 922.660964 473.269275zM512.154519-114.980339c-228.735541 0-414.82582 186.090279-414.82582 414.82582 0 228.735541 186.090279 414.82582 414.82582 414.82582s414.82582-186.090279 414.82582-414.82582C926.980339 71.108916 740.891084-114.980339 512.154519-114.980339zM511.292895 299.213078m-235.57839 0a230.213 230.213 0 1 0 471.15678 0 230.213 230.213 0 1 0-471.15678 0Z"  horiz-adv-x="1024" />

    
    <glyph glyph-name="wodeqiuzhizhongxin" unicode="&#58899;" d="M512.066 789.468C242.112 789.468 22.53 569.886 22.53 300c0-96.976 28.434-190.952 82.376-271.672 91.238-136.376 243.43-217.796 407.16-217.796 163.73 0 315.984 81.42 407.158 217.862 53.81 80.46 82.248 174.442 82.248 271.608C1001.472 569.886 781.948 789.468 512.066 789.468zM512.066 754.404c250.506 0 454.272-203.836 454.272-454.404 0-82.058-21.798-161.626-63.372-231.504-1.534 1.784-3.57 2.996-5.04 4.718-16.32 18.428-34.05 35.322-53.75 50.368-3.058 2.362-6.506 4.53-9.756 6.76-21.164 15.17-43.608 29.01-68.412 40.292-8.284 3.89-18.17 0.574-22.566-7.392-46.93-83.846-135.552-135.934-231.378-135.934-95.768 0-184.456 52.088-231.508 135.934-2.04 3.632-5.292 5.798-8.86 7.264-1.022 0.384-1.85 0.514-2.868 0.766-1.278 0.258-2.362 0.958-3.574 0.958-2.486 0-4.974-0.512-7.27-1.596-24.734-11.284-47.242-25.054-68.346-40.23-3.318-2.292-6.76-4.46-9.882-6.884-19.702-15.114-37.554-32.07-53.812-50.56-1.402-1.656-3.318-2.804-4.78-4.528C79.532 138.502 57.662 218.07 57.662 300 57.662 550.566 261.56 754.404 512.066 754.404zM512.066-154.34c-147.344 0-284.616 71.154-370.052 190.826 9.626 12.118 20.466 23.016 31.56 33.666 6.184 5.866 11.476 12.688 18.108 18.174 20.274 16.574 42.334 31.24 66.69 43.544 54.96-86.586 150.726-139.7 253.696-139.7 103.034 0 198.732 53.114 253.566 139.7 24.356-12.304 46.542-26.97 66.756-43.544 6.502-5.362 11.664-12.056 17.79-17.86 11.218-10.708 22.186-21.674 31.942-33.912C796.682-83.186 659.47-154.34 512.066-154.34zM512.066 90.746c112.66 0 204.282 91.688 204.282 204.406l0 186.812c0 112.722-91.624 204.342-204.282 204.342-112.726 0-204.408-91.622-204.408-204.342l0-186.812C307.658 182.434 399.34 90.746 512.066 90.746zM342.788 481.964c0 93.278 75.934 169.212 169.278 169.212 93.276 0 169.15-75.934 169.15-169.212l0-186.812c0-93.34-75.874-169.28-169.15-169.28-93.344 0-169.278 75.94-169.278 169.28L342.788 481.964z"  horiz-adv-x="1024" />

    
    <glyph glyph-name="zhiweiliebiao" unicode="&#59008;" d="M97.344 683.008l230.08 0c17.664 0 32 14.304 32 32s-14.336 32-32 32l-230.08 0c-17.664 0-32-14.304-32-32S79.648 683.008 97.344 683.008zM684-86.016l-586.656 0c-17.664 0-32-14.304-32-32s14.336-32 32-32l586.656 0c17.664 0 32 14.304 32 32S701.664-86.016 684-86.016zM954.048-16.448l-167.584 279.776c63.328 49.568 104.224 126.496 104.224 212.96 0 149.248-121.408 270.688-270.656 270.688s-270.656-121.44-270.656-270.688 121.408-270.656 270.656-270.656c39.872 0 77.664 8.896 111.776 24.448l167.36-279.392c6.016-10.016 16.608-15.552 27.488-15.552 5.6 0 11.264 1.472 16.416 4.576C958.208-51.264 963.136-31.584 954.048-16.448zM413.344 476.32c0 113.984 92.704 206.688 206.656 206.688s206.656-92.704 206.656-206.688c0-113.952-92.704-206.656-206.656-206.656S413.344 362.368 413.344 476.32zM97.344 405.344l140.672 0c17.664 0 32 14.304 32 32s-14.336 32-32 32l-140.672 0c-17.664 0-32-14.304-32-32S79.648 405.344 97.344 405.344zM97.344 127.648 432 127.648c17.664 0 32 14.304 32 32s-14.336 32-32 32l-334.656 0c-17.664 0-32-14.304-32-32S79.648 127.648 97.344 127.648z"  horiz-adv-x="1024" />

    
    <glyph glyph-name="quxiao" unicode="&#58937;" d="M512.73678-156.396611c-246.967788 0-447.904193 200.931289-447.904193 447.904193 0 246.967788 200.936405 447.904193 447.904193 447.904193 246.988254 0 447.904193-200.936405 447.904193-447.904193C960.640973 44.534677 759.725034-156.396611 512.73678-156.396611zM512.73678 722.186462c-237.470483 0-430.67888-193.20942-430.67888-430.677856 0-237.480716 193.20942-430.67888 430.67888-430.67888 237.490949 0 430.677856 193.198164 430.677856 430.67888C943.414637 528.978065 750.226706 722.186462 512.73678 722.186462zM704.591343 87.458279 308.695664 483.363168 320.880171 495.537442 716.77585 99.642786ZM320.880171 87.458279 308.695664 99.642786 704.591343 495.537442 716.77585 483.363168Z"  horiz-adv-x="1024" />

    
    <glyph glyph-name="dashangyuankongxin" unicode="&#58964;" d="M512 809.692179C230.506985 809.692179 2.323104 581.493015 2.323104 300c0-281.477731 228.183881-509.676896 509.676896-509.676896S1021.676896 18.522269 1021.676896 300C1021.676896 581.493015 793.477731 809.692179 512 809.692179zM512-191.153194c-271.253015 0-491.153194 219.900179-491.153194 491.153194S240.746985 791.168478 512 791.168478c271.268299 0 491.153194-219.915463 491.153194-491.168478S783.253015-191.153194 512-191.153194zM470.122985 468.165254l82.34794 0L552.470925 497.616716l-82.34794 0L470.122985 468.165254zM551.829015 458.33791l-81.70603 0c0 0-134.464955-126.364657-134.464955-250.268657 0-131.270687 140.899343-141.69409 140.899343-141.69409s42.029851-6.663642 68.195343 0c0 0 142.825075 15.940776 142.825075 141.082746C687.577791 332.599881 551.829015 458.33791 551.829015 458.33791zM545.104239 206.357493c-2.460657-4.783761-5.807761-8.757493-10.02603-11.936478-4.218269-3.194269-9.185433-5.593791-14.825075-7.213851-0.718328-0.21397-1.497791-0.290388-2.231403-0.458507l0-16.246448-15.344716 0 0 14.320716c-0.198687 0-0.366806-0.030567-0.565493-0.030567-4.355821 0-8.40597 0.336239-12.135164 1.008716-3.744478 0.687761-7.030448 1.497791-9.888478 2.445373-2.85803 0.947582-5.242269 1.941015-7.168 2.980299s-3.301254 1.971582-4.141851 2.766328c-0.840597 0.81003-1.45194 1.956299-1.803463 3.484657s-0.534925 3.71391-0.534925 6.57194c0 1.925731 0.061134 3.530507 0.198687 4.829612 0.122269 1.314388 0.336239 2.368955 0.64191 3.178985 0.290388 0.81003 0.672478 1.375522 1.161552 1.711761 0.489075 0.351522 1.054567 0.519642 1.711761 0.519642 0.917015 0 2.200836-0.504358 3.851463-1.543642 1.650627-1.008716 3.790328-2.154985 6.388537-3.392955 2.598209-1.23797 5.700776-2.353672 9.307701-3.392955 3.606925-1.008716 7.779343-1.528358 12.517254-1.528358 3.117851 0 5.914746 0.351522 8.375403 1.069851 2.47594 0.703045 4.569791 1.711761 6.281552 3.010866 1.727045 1.314388 3.041433 2.919164 3.943164 4.844896 0.932299 1.925731 1.375522 4.065433 1.375522 6.419104 0 2.735761-0.779463 5.058866-2.323104 7.030448-1.574209 1.941015-3.591642 3.66806-6.082866 5.181134-2.506507 1.528358-5.349254 2.949731-8.543522 4.279403-3.178985 1.329672-6.464955 2.751045-9.842627 4.218269-3.377672 1.497791-6.663642 3.178985-9.842627 5.074149-3.178985 1.879881-6.037015 4.141851-8.528239 6.770627-2.506507 2.628776-4.52394 5.746627-6.082866 9.338269-1.558925 3.576358-2.338388 7.886328-2.338388 12.914627 0 5.76191 1.115701 10.820776 3.362388 15.176597 2.231403 4.371104 5.257552 7.993313 9.063164 10.88191 3.805612 2.873313 8.283701 5.028299 13.449552 6.464955 2.659343 0.733612 5.395104 1.253254 8.207284 1.604776L502.692299 324.14806l15.344716 0 0-15.375284c0.611343-0.076418 1.222687-0.045851 1.83403-0.137552 2.980299-0.42794 5.792478-0.993433 8.390687-1.742328s4.890746-1.574209 6.908179-2.491224 3.362388-1.681194 4.004299-2.292537 1.085134-1.146269 1.314388-1.589493 0.42794-0.993433 0.580776-1.711761c0.168119-0.718328 0.275104-1.62006 0.336239-2.705194 0.076418-1.085134 0.106985-2.445373 0.106985-4.065433 0-1.788179-0.061134-3.331821-0.152836-4.554507-0.106985-1.253254-0.275104-2.26197-0.489075-3.087284-0.229254-0.794746-0.550209-1.390806-0.962866-1.757612s-0.993433-0.550209-1.696478-0.550209c-0.718328 0-1.849313 0.42794-3.423522 1.283821-1.574209 0.871164-3.484657 1.788179-5.746627 2.827463-2.26197 0.993433-4.90603 1.941015-7.901612 2.766328-2.995582 0.840597-6.281552 1.253254-9.842627 1.253254-2.796896 0-5.226985-0.320955-7.320836-0.962866-2.078567-0.657194-3.820896-1.558925-5.211701-2.68991-1.390806-1.146269-2.43009-2.521791-3.117851-4.141851-0.672478-1.589493-1.024-3.301254-1.024-5.089433 0-2.659343 0.764179-4.951881 2.292537-6.908179s3.576358-3.683343 6.144-5.211701 5.471522-2.934448 8.726925-4.279403c3.255403-1.314388 6.57194-2.735761 9.934328-4.218269 3.377672-1.482507 6.694209-3.163701 9.934328-5.058866s6.144-4.141851 8.681075-6.770627c2.521791-2.64406 4.569791-5.731343 6.128716-9.292418 1.558925-3.545791 2.338388-7.76406 2.338388-12.578388C548.833433 216.658627 547.580179 211.12597 545.104239 206.357493zM551.187104 507.413493l41.815881 98.151164c0 0-26.394746-20.846806-41.815881-20.846806s-39.890149 20.235463-39.890149 20.235463-26.379463-20.235463-41.815881-20.235463-40.53206 19.624119-40.53206 19.624119l42.457791-96.928478L551.187104 507.413493z"  horiz-adv-x="1024" />

    
    <glyph glyph-name="yang" unicode="&#58959;" d="M812.243667 357.143465 812.243667 440.513244 572.177056 440.513244 768.792039 637.128227 709.840392 696.079874 511.999488 498.23897 314.158584 696.079874 255.207961 637.128227 451.822944 440.513244 211.756333 440.513244 211.756333 357.143465 470.31511 357.143465 470.31511 256.608747 259.510964 256.608747 259.510964 173.238968 470.31511 173.238968 470.31511-96.078851 553.68489-96.078851 553.68489 173.238968 764.489036 173.238968 764.489036 256.608747 553.68489 256.608747 553.68489 357.143465Z"  horiz-adv-x="1024" />

    
    <glyph glyph-name="nan" unicode="&#58960;" d="M515.598222 786.940444c-267.150222 0-483.712-216.561778-483.712-483.712 0-267.150222 216.561778-483.712 483.712-483.712s483.712 216.561778 483.712 483.712C999.310222 570.364444 782.748444 786.940444 515.598222 786.940444zM667.662222 165.912889c8.632889 7.594667 21.816889 6.755556 29.411556-1.877333 7.608889-8.647111 6.755556-21.816889-1.877333-29.411556L533.447111-7.626667c-3.925333-3.456-8.846222-5.191111-13.767111-5.191111-4.750222 0-9.500444 1.621333-13.368889 4.864L336.398222 134.282667c-8.832 7.395556-9.998222 20.536889-2.602667 29.354667 7.395556 8.817778 20.522667 9.998222 29.354667 2.602667L497.777778 53.528889 497.777778 245.201778c-96.696889 11.562667-171.690667 93.596444-171.690667 193.265778 0 107.576889 87.338667 194.801778 195.086222 194.801778 107.733333 0 195.086222-87.210667 195.086222-194.801778 0-101.077333-77.112889-184.149333-175.800889-193.820444l0-190.620444L667.662222 165.912889zM672.938667 438.467556c0 83.527111-68.081778 151.480889-151.765333 151.480889s-151.765333-67.953778-151.765333-151.480889c0-83.527111 68.081778-151.480889 151.765333-151.480889S672.938667 354.940444 672.938667 438.467556z"  horiz-adv-x="1024" />

    
    <glyph glyph-name="nv" unicode="&#58961;" d="M515.598222 777.880889c-267.150222 0-483.712-216.561778-483.712-483.712 0-267.150222 216.561778-483.712 483.712-483.712S999.310222 27.018667 999.310222 294.168889C999.310222 561.304889 782.748444 777.880889 515.598222 777.880889zM668.444444 186.222222c11.776 0 21.333333-9.557333 21.333333-21.333333 0-11.776-9.557333-21.333333-21.333333-21.333333l-128 0 0-162.218667c0-11.776-9.557333-21.333333-21.333333-21.333333-11.776 0-21.333333 9.557333-21.333333 21.333333L497.777778 143.555556l-128 0c-11.776 0-21.333333 9.557333-21.333333 21.333333 0 11.776 9.557333 21.333333 21.333333 21.333333l128 0 0 60.629333c-92.600889 13.767111-163.726222 93.269333-163.726222 189.568 0 105.984 86.044444 191.900444 192.184889 191.900444s192.184889-85.916444 192.184889-191.900444c0-101.191111-78.492444-183.893333-177.976889-191.189333L540.444444 186.222222 668.444444 186.222222zM675.754667 436.419556c0 82.289778-67.072 149.233778-149.518222 149.233778s-149.518222-66.944-149.518222-149.233778c0-82.289778 67.072-149.233778 149.518222-149.233778S675.754667 354.129778 675.754667 436.419556z"  horiz-adv-x="1024" />

    
    <glyph glyph-name="jia" unicode="&#58975;" d="M511.968-149.216c-247.264 0-448.448 201.152-448.448 448.448S264.704 747.68 511.968 747.68c247.296 0 448.48-201.184 448.48-448.48S759.264-149.216 511.968-149.216zM511.968 667.68c-203.168 0-368.448-165.28-368.448-368.48 0-203.168 165.28-368.448 368.448-368.448 203.168 0 368.48 165.28 368.48 368.448C880.448 502.4 715.136 667.68 511.968 667.68zM716.672 254.432 556.704 254.432l0-159.872c0-24.672-19.968-44.832-44.736-44.832-24.672 0-44.704 20.16-44.704 44.832l0 159.872-160 0c-24.736 0-44.8 20.128-44.8 44.8 0 24.736 20.064 44.768 44.8 44.768l160 0 0 159.936c0 24.736 20.032 44.768 44.704 44.768 24.8 0 44.736-20.032 44.736-44.768l0-159.936 159.968 0c24.768 0 44.832-20.032 44.832-44.768C761.536 274.528 741.44 254.432 716.672 254.432z"  horiz-adv-x="1024" />

    
    <glyph glyph-name="yaoqing" unicode="&#58932;" d="M509.457596 752.78127l-46.99636-47.509037 100.187817 0L509.457596 752.78127zM153.296897 702.517493l424.330288 0 7.229658-45.788859L202.187397 656.728634l1.029446-370.276185 620.225887 0-0.017396-44.930305L201.151811 241.522144l-47.854914 35.117822 0 60.938907-62.658062 5.160533 64.034409 71.269183L153.296897 702.517493zM584.856843 656.728634l242.203274-1.034563-3.617387-369.241622 0 0-0.017396-44.930305 0.534166-2.582825L663.868361 113.44821 935.508062-113.777955l0 443.091584-67.13912-50.609655-1.029446 60.939931 68.168566 1.030469-70.233598 73.333192 7.228635 288.509926L577.627185 702.517493 584.856843 656.728634zM384.996956 105.188082 86.637708-147.802886l837.248665 1.49198L624.619452 105.188082 384.996956 105.188082zM86.637708 327.249621l0-444.812785L358.489232 112.413648 86.637708 327.249621zM677.293115 368.218708l90.892103 0 0-16.523325-90.892103 0L677.293115 368.218708 677.293115 368.218708zM416.500461 499.391213l351.169011 0 0-16.528442L416.500461 482.862771 416.500461 499.391213 416.500461 499.391213zM530.113031 556.195963l237.556441 0 0-23.926946L530.113031 532.269018 530.113031 556.195963 530.113031 556.195963zM327.15969 573.066189c0 0-33.051767 36.666084-45.962821 3.099594 0 0-11.359722-25.306362 6.200212-43.895743l39.762609-41.143049c0 0 44.931329 40.111556 55.256488 57.154721 0 0 9.81146 39.155788-24.785499 42.037419C357.630678 590.318108 347.819219 590.880927 327.15969 573.066189L327.15969 573.066189zM327.15969 573.066189"  horiz-adv-x="1024" />

    
    <glyph glyph-name="dingdan" unicode="&#58972;" d="M843.52 751.84l-60.16 0c-16.64 0-35.84-10.24-35.84-26.88s19.2-33.28 35.84-33.28l60.16 0c35.84 0 60.16-24.32 60.16-60.16l0-692.48c0-35.84-24.32-60.16-60.16-60.16L195.84-121.12c-35.84 0-75.52 24.32-75.52 60.16L120.32 631.52c0 35.84 24.32 60.16 60.16 60.16L256 691.68c16.64 0 23.04 16.64 23.04 33.28S272.64 751.84 256 751.84l-75.52 0c-84.48 0-120.32-52.48-120.32-121.6l0-684.8c0-74.24 44.8-126.72 126.72-126.72l650.24 0c81.92 0 126.72 43.52 126.72 126.72L963.84 630.24C963.84 699.36 921.6 751.84 843.52 751.84zM256 480.48c0-16.64 14.08-30.72 30.72-30.72l451.84 0c16.64 0 30.72 14.08 30.72 30.72 0 16.64-14.08 30.72-30.72 30.72L286.72 511.2C270.08 511.2 256 497.12 256 480.48zM737.28 344.8 286.72 344.8c-16.64 0-30.72-14.08-30.72-30.72 0-16.64 14.08-30.72 30.72-30.72l451.84 0c16.64 0 30.72 14.08 30.72 30.72C768 332 753.92 344.8 737.28 344.8zM737.28 164.32 286.72 164.32c-16.64 0-30.72-14.08-30.72-30.72 0-16.64 14.08-30.72 30.72-30.72l451.84 0c16.64 0 30.72 14.08 30.72 30.72C768 151.52 753.92 164.32 737.28 164.32zM408.32 676.32l209.92 0c24.32 0 44.8 24.32 44.8 52.48s-20.48 52.48-46.08 52.48L408.32 781.28c-25.6 0-46.08-24.32-46.08-52.48S382.72 676.32 408.32 676.32z"  horiz-adv-x="1024" />

    
    <glyph glyph-name="xiaolian" unicode="&#58900;" d="M512 700.297942c-220.713844 0-400.297942-179.585121-400.297942-400.298965 0-220.713844 179.585121-400.296919 400.297942-400.296919s400.297942 179.584098 400.297942 400.296919C912.297942 520.713844 732.712821 700.297942 512 700.297942zM512-54.61346c-195.544605 0-354.611413 159.068855-354.611413 354.612437 0 195.544605 159.066809 354.612437 354.611413 354.612437 195.543581 0 354.611413-159.067832 354.611413-354.612437C866.611413 104.456419 707.543581-54.61346 512-54.61346zM520.488325 150.528734c-62.519915-0.675382-119.146611 25.64917-158.796656 68.087725l-34.80469-29.390377c48.152696-52.440349 117.471458-85.073584 194.092533-84.246753 72.080665 0.778736 137.060609 31.026644 183.64867 79.121012l-32.903388 31.447223C633.325229 176.015198 579.824735 151.170347 520.488325 150.528734zM664.226007 400.866269m-45.104267 0a44.077 44.077 0 1 0 90.208535 0 44.077 44.077 0 1 0-90.208535 0ZM359.773993 400.866269m-45.104267 0a44.077 44.077 0 1 0 90.208535 0 44.077 44.077 0 1 0-90.208535 0Z"  horiz-adv-x="1024" />

    
    <glyph glyph-name="renzheng1" unicode="&#58951;" d="M147.644 36.869v485.021h693.765v-173.444c15.523-9.124 29.933-19.933 42.979-32.183l0 227.117c0 11.868-9.621 21.489-21.489 21.489h-736.744c-11.868 0-21.489-9.621-21.489-21.489v-528c0-11.868 9.621-21.489 21.489-21.489l402.141-0c-10.219 13.301-19.087 27.692-26.386 42.979h-354.266zM458.201 424.171h-252.743c-11.303 0-20.466-9.163-20.466-20.466s9.163-20.466 20.466-20.466h252.743c11.303 0 20.466 9.163 20.466 20.466s-9.163 20.466-20.466 20.466zM458.201 299.846h-252.743c-11.303 0-20.466-9.163-20.466-20.466s9.163-20.466 20.466-20.466h252.743c11.303 0 20.466 9.163 20.466 20.466s-9.163 20.466-20.466 20.466zM458.201 175.52h-252.743c-11.303 0-20.466-9.163-20.466-20.466s9.163-20.466 20.466-20.466h252.743c11.303 0 20.466 9.163 20.466 20.466s-9.163 20.466-20.466 20.466zM719.489 336.205c-108.052 0-195.643-87.593-195.643-195.643 0-108.051 87.591-195.642 195.643-195.642 108.048 0 195.641 87.591 195.641 195.642-0.001 108.051-87.594 195.643-195.641 195.643zM705.831 26.018c-5.263-5.24-12.15-7.865-19.038-7.865-6.854 0-13.709 2.596-18.965 7.791l-89.334 88.294c-10.597 10.475-10.696 27.555-0.223 38.152 10.474 10.595 27.555 10.696 38.15 0.223l70.296-69.479 133.498 132.985c10.555 10.514 27.635 10.482 38.151-0.074 10.513-10.555 10.482-27.636-0.074-38.151l-152.462-151.876z"  horiz-adv-x="1024" />

    
    <glyph glyph-name="zuixinbopindashang" unicode="&#58969;" d="M895.368876-2.68374 808.200584 148.559892c14.398942 5.959735 25.827225 16.139585 33.280987 29.054733l0 0 0 0.49221c8.439206 13.907755 11.411911 31.293727 7.439436 48.427966l-11.920494 53.888328-0.49221 0.74599 36.254715 38.986943 1.99954 1.740644c11.920494 13.159718 17.86795 29.800723 17.86795 46.440705 0 15.893992-5.947456 32.781614-17.86795 45.694715l-38.254256 40.974203 12.413727 54.388724c3.973498 17.379832 1.000793 34.766828-7.439436 48.673559-7.948019 14.652721-21.361517 26.073842-38.749536 31.287587l-53.147454 16.394389-16.632819 53.141314c-5.207605 16.887622-16.387225 30.794353-30.540573 38.994106l0 0c-14.402011 8.193613-31.787984 11.17348-48.682769 7.446599l-54.132898-12.167111-0.494257-0.246617-39.486316 36.007075-1.740644 1.986237c-12.905938 11.920494-29.308513 17.881253-45.941332 17.881253-16.648169 0-33.034371-5.959735-46.187949-17.881253l-39.488363-37.253462-1.493004-0.73985-54.628178 12.412704c-17.140379 3.726881-34.280758 0.747014-48.680722-7.446599-13.906731-8.199753-25.335015-22.107507-30.78719-38.994106l-16.400528-52.647057-0.246617-0.493234-53.396117-16.394389c-16.632819-5.212722-30.540573-16.633842-38.239929-31.287587-8.68787-13.906731-11.42726-31.293727-7.946996-48.673559l12.920264-54.388724-36.268018-38.986943-1.986237-1.987261c-12.167111-12.666484-18.126846-29.30749-18.126846-45.694715 0-16.639982 5.960759-33.279964 18.126846-46.440705l0.24764 0 36.760229-39.733956 1.24741-0.99363-12.428054-53.395094-0.49221-1.240247c-3.480264-17.134239-0.740874-34.520211 7.946996-48.427966 7.452739-13.407358 18.866696-23.587208 33.279964-29.546943l-87.414909-151.243633c-5.467525-9.933233-2.233877-22.847357 7.946996-28.306696 2.973728-2.487657 6.947226-2.980891 10.426467-2.980891l0 0 118.709659 0.994654 58.108442-103.057167c5.466502-10.19213 18.373463-13.660114 28.306696-8.207939 3.974521 2.248204 6.714935 4.974291 8.44023 8.701173l89.908706 155.456584 15.647375-14.652721c13.153578-11.919471 29.53978-17.880229 45.941332-17.880229 16.387225 0 33.280987 5.959735 46.187949 17.880229l15.647375 14.652721 89.647763-155.456584c1.986237-3.726881 4.712325-6.452969 8.44023-8.701173 10.425444-5.452175 22.854521-1.984191 28.319999 8.207939l58.355059 103.057167 118.449739-0.994654 0 0c3.973498 0 7.453762 0.493234 10.685363 2.980891C897.602753-25.531098 901.081994-12.616974 895.368876-2.68374L895.368876-2.68374zM341.815481-83.63954 341.815481-83.63954l-46.187949 82.448804c-3.726881 6.453992-10.426467 10.426467-18.373463 10.426467l-94.376461-0.99363 73.508177 127.649262 17.633612-5.466502 16.647145-53.387931c5.453199-16.887622 16.880459-30.054503 30.78719-38.994106 14.399965-7.948019 31.540344-10.927887 48.680722-6.953366l43.708478 9.933233L341.815481-83.63954 341.815481-83.63954zM577.741795 110.06516 577.741795 110.06516c-9.441023-2.734274-18.373463-7.948019-25.335015-14.901385l-1.986237-1.986237-38.734186-35.760458-40.488133 37.747719 0.24764 0c-7.946996 7.700379-17.866926 13.159718-28.307719 15.893992l0 0c-10.426467 2.979868-21.346167 2.979868-32.773428 0.99363l-53.641711-12.914124-16.139585 52.648081-0.260943 0 0.260943 0c-3.234671 11.17348-9.193383 20.614503-16.648169 28.306696-7.700379 7.453762-17.373693 12.914124-28.306696 16.641005l-52.147684 16.140609 11.920494 54.141084c2.480494 10.425444 2.232854 21.852704-0.493234 32.033577l-0.99977 3.227508c-2.973728 9.44-8.193613 17.880229-14.894222 25.580608l-2.000564 1.740644-35.253922 38.740326 0.246617 0.494257 37.007869 39.240723c7.440459 8.44023 12.906961 17.880229 15.893992 28.807093l0 0.24764 0 0c2.726088 10.432607 2.973728 21.360494 0.493234 32.532951l-11.920494 53.640688 52.147684 15.893992c10.934027 3.726881 20.606317 9.432837 28.306696 16.886599 7.454786 7.446599 13.413498 17.134239 16.648169 28.061103l0.246617 1.239224 15.893992 51.65445 53.641711-12.412704c11.42726-2.487657 22.346961-2.487657 32.773428 0.493234l0 0c10.180873 2.733251 20.360723 8.200776 28.307719 15.893992l1.99954 1.986237 38.240953 35.267225 0.73985 0 39.980573-37.254485 0 0c7.948019-7.946996 17.881253-13.159718 28.321022-15.893992 10.426467-2.980891 21.348214-2.980891 32.526811-0.493234l0.988514 0.493234 52.65422 11.919471 16.139585-52.647057 0.49221-0.246617-0.49221 0c6.946202-21.853727 23.347754-37.994336 44.953841-44.947701l52.394301-15.893992-12.167111-53.640688c-2.233877-11.17348-2.233877-22.353101 0.494257-32.780591 2.740414-10.43363 8.193613-19.866467 16.138562-28.313859l37.254485-40.228213-0.49221-0.99363-36.762275-39.48734c-7.945973-8.694009-13.399171-18.126846-16.138562-28.560476l-0.740874-1.987261c-1.987261-10.17985-1.987261-20.360723 0.245593-30.794353l0.246617-0.99363 11.919471-52.647057-52.394301-16.140609c-11.17962-3.726881-20.61962-9.187243-28.061103-16.641005-7.697309-7.693216-13.411451-17.133216-16.892739-28.306696l0-0.99363-16.139585-51.655474-53.888328 12.914124c-10.933003 1.986237-21.853727 1.986237-32.281217-0.99363L577.741795 110.06516 577.741795 110.06516zM746.364237 9.23573 746.364237 9.23573c-7.946996 0-14.646582-3.973498-18.373463-10.426467l-46.447868-82.448804-71.520917 124.663254 42.227754-9.679453 0.986467-0.25378c16.387225-3.974521 32.526811-1.240247 46.187949 5.713119l2.988054 1.240247c13.411451 7.946996 24.333198 20.86112 29.798676 36.754089l0.741897 2.240017L749.585605 129.93265l0 0.493234 17.893532 5.466502 73.248258-127.649262L746.364237 9.23573 746.364237 9.23573zM641.315716 238.454272 641.315716 238.454272c33.528628 33.027208 54.134945 78.975702 54.134945 129.883139 0 50.415226-20.60734 96.356558-54.134945 129.137149-33.033347 33.527604-78.974679 54.133921-129.629359 54.133921-50.161447 0-96.362698-20.606317-129.630383-54.133921-33.279964-32.781614-53.901631-78.722946-53.901631-129.137149 0-50.167586 20.113083-95.360881 52.655244-128.641869l1.246387-1.24127c33.267685-33.527604 79.468936-53.887304 129.630383-53.887304C562.341037 184.566968 608.282369 204.927691 641.315716 238.454272L641.315716 238.454272zM612.00925 268.009402 612.00925 268.009402 612.00925 268.009402c-25.827225-25.827225-61.096497-41.4746-100.322893-41.4746-38.747489 0-74.508971 15.647375-100.089579 41.4746l-0.98749 0.99363c-24.579815 25.326828-40.473807 60.34846-40.473807 99.334379 0 38.741349 16.387225 74.255191 41.461297 99.829659 25.580608 25.827225 61.341067 41.229007 100.089579 41.229007 39.226397 0 74.495668-15.400758 100.322893-41.229007 25.332968-25.573445 41.22696-61.087287 41.22696-99.829659C653.23621 328.850072 637.588835 293.59001 612.00925 268.009402L612.00925 268.009402 612.00925 268.009402z"  horiz-adv-x="1024" />

    
    <glyph glyph-name="mima" unicode="&#58943;" d="M521.939373 256.493114c-41.249473 0-74.679863-33.429367-74.679863-74.679863 0-29.720905 17.511839-55.17974 42.674938-67.188238l0-82.138742c0-17.659195 14.34573-32.005948 32.004925-32.005948 17.659195 0 32.005948 14.346753 32.005948 32.005948l0 82.140789c25.162076 12.009522 42.674938 37.46631 42.674938 67.187215C596.620259 223.063747 563.188846 256.493114 521.939373 256.493114zM831.296093 405.822141l-640.016629 0c-35.352159 0-64.011896-28.626991-64.011896-63.980173l0-426.676729c0-35.352159 28.659737-64.011896 64.011896-64.011896l640.016629 0c35.31839 0 63.978127 28.659737 63.978127 64.011896L895.27422 341.841967C895.275243 377.194126 866.615507 405.822141 831.296093 405.822141zM831.296093-42.160847c0-35.352159-7.321756-42.674938-42.674938-42.674938L233.919611-84.835785c-35.351136 0-42.640146 7.321756-42.640146 42.674938L191.279465 299.167029c0 35.352159 7.28901 42.674938 42.640146 42.674938l554.701544 0c35.352159 0 42.674938-7.321756 42.674938-42.674938L831.296093-42.160847zM208.867028 438.024563c17.768689 0 32.218796 14.161534 32.705889 31.812543l0.067538-0.004093c28.92375 122.258485 138.525983 213.338876 269.63095 213.338876 102.480023 0 191.682647-55.771211 239.628636-138.475841 4.988618-11.293207 16.279778-19.177781 29.41903-19.177781 17.758456 0 32.154327 14.395872 32.154327 32.154327 0 6.928806-2.199085 13.33982-5.925966 18.58938-58.985416 102.048187-168.918177 170.922834-295.276027 170.922834-165.111478 0-302.614156-113.305579-334.272179-268.980127-0.149403-0.641613-0.280386-1.289366-0.391926-1.945305-0.153496-0.778736-0.321318-1.551332-0.469698-2.332115l0.154519-0.00921c-0.100284-1.040702-0.154519-2.094708-0.154519-3.162016C176.136579 452.678308 190.790324 438.024563 208.867028 438.024563z"  horiz-adv-x="1024" />

    
    <glyph glyph-name="shoucang" unicode="&#58921;" d="M512.453325-150.358081c-247.816109 0-448.711582 200.895473-448.711582 448.713628 0 247.814062 200.895473 448.710558 448.711582 448.710558s448.711582-200.895473 448.711582-448.710558C961.165929 50.537392 760.269433-150.358081 512.453325-150.358081zM512.453325 709.673473c-227.16579 0-411.31895-184.15316-411.31895-411.317926 0-227.167836 184.15316-411.320996 411.31895-411.320996S923.773298 71.187711 923.773298 298.355547C923.773298 525.520313 739.620138 709.673473 512.453325 709.673473zM792.249799 361.168128l-193.326077 28.103058-86.46835 175.170578-86.47142-175.170578-193.326077-28.103058 139.875724-136.356574-33.000602-192.545294 172.922375 90.90336 172.919305-90.90336-33.000602 192.545294L792.249799 361.168128 792.249799 361.168128zM512.454348 166.38998l-122.142851-64.200184 23.346731 135.964648-98.774631 96.312556 136.53156 19.843954 61.039191 123.707486 61.057611-123.720789 136.51007-19.843954-98.774631-96.300276 23.347754-135.986137L512.454348 166.38998 512.454348 166.38998zM512.454348 166.38998M512.453325-150.358081c-247.816109 0-448.711582 200.895473-448.711582 448.713628 0 247.814062 200.895473 448.710558 448.711582 448.710558s448.711582-200.895473 448.711582-448.710558C961.165929 50.537392 760.269433-150.358081 512.453325-150.358081zM512.453325 709.673473c-227.16579 0-411.31895-184.15316-411.31895-411.317926 0-227.167836 184.15316-411.320996 411.31895-411.320996S923.773298 71.187711 923.773298 298.355547C923.773298 525.520313 739.620138 709.673473 512.453325 709.673473zM792.249799 361.168128l-193.326077 28.103058-86.46835 175.170578-86.47142-175.170578-193.326077-28.103058 139.875724-136.356574-33.000602-192.545294 172.922375 90.90336 172.919305-90.90336-33.000602 192.545294L792.249799 361.168128 792.249799 361.168128zM512.454348 166.38998l-122.142851-64.200184 23.346731 135.964648-98.774631 96.312556 136.53156 19.843954 61.039191 123.707486 61.057611-123.720789 136.51007-19.843954-98.774631-96.300276 23.347754-135.986137L512.454348 166.38998 512.454348 166.38998zM512.454348 166.38998"  horiz-adv-x="1024" />

    
    <glyph glyph-name="tianjia" unicode="&#58915;" d="M675.04 328.736l-127.04 0 0 127.264c0 20.064-16.288 36.32-36.32 36.32-20.064 0-36.32-16.192-36.32-36.32l0-127.232-127.072 0c-20.064 0-36.352-16.32-36.352-36.352 0-20.064 16.224-36.352 36.352-36.352l127.072 0 0-127.232c0-20 16.256-36.384 36.32-36.384 20.032 0 36.32 16.256 36.32 36.384l0 127.136 127.04 0c19.968 0 36.352 16.256 36.352 36.384C711.36 312.448 695.136 328.736 675.04 328.736L675.04 328.736zM511.328 746.56c-250.24 0-453.952-203.616-453.952-453.952 0-250.336 203.712-453.952 453.952-453.952 250.336 0 453.984 203.584 453.984 453.952C965.312 542.944 761.696 746.56 511.328 746.56L511.328 746.56zM511.328-104.576c-219.04 0-397.184 178.176-397.184 397.152 0 219.104 178.144 397.216 397.184 397.216s397.216-178.112 397.216-397.216C908.576 73.632 730.368-104.576 511.328-104.576L511.328-104.576zM511.328-104.576"  horiz-adv-x="1024" />

    
    <glyph glyph-name="xiaolvdashitubiao50" unicode="&#58938;" d="M298.666667 356.917333M664.888889 441.283556M264.334222 387.409778M336.896 392.728889c22.784 0 41.216 27.648 41.216 61.781333 0 34.161778-18.432 61.809778-41.216 61.809778-22.727111 0-41.187556-27.648-41.187556-61.809778C295.708444 420.348444 314.168889 392.728889 336.896 392.728889L336.896 392.728889zM510.520889 271.498667c-110.08 0-234.211556-20.593778-234.211556-41.187556s15.729778-215.125333 232.448-215.125333c195.754667 0 238.990222 196.437333 238.990222 215.125333C747.747556 248.970667 635.278222 271.498667 510.520889 271.498667L510.520889 271.498667zM512 784.152889C244.650667 784.152889 27.847111 567.377778 27.847111 300S244.650667-184.152889 512-184.152889c267.377778 0 484.152889 216.746667 484.152889 484.152889S779.377778 784.152889 512 784.152889L512 784.152889zM512-142.936889C267.349333-142.936889 69.091556 55.349333 69.091556 300S267.349333 742.936889 512 742.936889 954.936889 544.650667 954.936889 300 756.650667-142.936889 512-142.936889L512-142.936889zM666.538667 392.728889c22.727111 0 41.187556 27.648 41.187556 61.781333 0 34.161778-18.460444 61.809778-41.187556 61.809778-22.784 0-41.187556-27.648-41.187556-61.809778C625.322667 420.348444 643.754667 392.728889 666.538667 392.728889L666.538667 392.728889zM666.538667 392.728889"  horiz-adv-x="1024" />

    
    <glyph glyph-name="iconfont02" unicode="&#58901;" d="M809.286 717.513h-591.109c-39.747 0-72.363-32.614-72.363-72.363v-729.712c0-39.747 32.614-72.363 72.363-72.363h496.329l167.138 172.238v629.838c0 39.747-32.614 72.363-72.363 72.363zM711.446-89.657v67.874c0 16.103 13.249 29.148 29.148 29.148h62.372l-91.521-97.025zM834.561 60.158h-88.666c-44.844 0-81.532-36.689-81.532-81.532v-85.61h-442.516c-16.103 0-29.148 13.249-29.148 29.148v713.406c0 16.103 13.249 29.148 29.148 29.148h583.568c16.103 0 29.148-13.249 29.148-29.148v-575.414zM266.484 487.182h382.386c13.654 0 24.868 11.211 24.868 25.070 0 13.654-11.414 24.868-25.070 24.868h-382.183c-13.654 0-24.868-11.211-24.868-24.868 0-13.859 11.211-25.070 24.868-25.070zM266.691 416.656c-13.654 0-24.868-11.414-24.868-25.070s11.211-24.868 24.868-24.868h326.128c13.654 0 24.868 11.211 25.070 24.868 0 13.859-11.414 25.070-25.070 25.070h-326.128zM714.507 296.193h-448.018c-13.654 0-24.868-11.211-24.868-24.868 0-13.859 11.211-25.070 24.868-25.070h448.018c13.654 0 24.868 11.211 25.070 25.070 0 13.654-11.414 24.868-25.070 24.868z"  horiz-adv-x="1024" />

    
    <glyph glyph-name="chengshiicon" unicode="&#58891;" d="M516.349051 525.479381c-83.323731 0-150.877289-67.553559-150.877289-150.877289 0-83.334987 67.553559-150.877289 150.877289-150.877289 83.331917 0 150.881382 67.542302 150.881382 150.877289C667.230434 457.925822 599.679945 525.479381 516.349051 525.479381zM515.802606 300.728594c-41.095977 0-74.41585 33.31885-74.41585 74.41892 0 41.095977 33.31885 74.41892 74.41585 74.41892 41.095977 0 74.41892-33.322943 74.41892-74.41892C590.222549 334.047444 556.899606 300.728594 515.802606 300.728594zM848.672856 547.303432c-1.459235 8.67252-5.886057 16.291035-12.177344 21.822005-27.345812 45.387723-64.068178 84.48723-107.49627 114.602108-3.111874 2.961448-6.725168 5.393847-10.700713 7.14677C660.118456 728.323229 590.861092 750.052113 516.52813 750.052113c-206.16243 0-373.294938-167.125345-373.294938-373.290845 0-95.097892 35.56603-181.883467 94.113471-247.797689 1.583055-2.708692 3.533476-5.26184 5.856381-7.584746l242.017032-253.410524c1.27504-1.853208 2.726088-3.620457 4.373611-5.269004 2.095731-2.094708 4.381797-3.87833 6.797823-5.372358 14.573927-10.205433 34.802644-8.81169 47.822169 4.201695 3.28072 3.281743 5.816472 7.02295 7.622608 11.013845l237.601466 248.836345c1.87572 1.87572 3.505847 3.903913 4.89959 6.040576 59.366086 66.099441 95.487771 153.500023 95.487771 249.341858C889.823068 438.206712 874.973872 496.184171 848.672856 547.303432zM746.821143 181.476583c-3.697205-1.778506-7.166213-4.191462-10.233062-7.258311l-33.461089-35.042097c-0.585331-0.462534-1.168616-0.928139-1.75804-1.385557l-124.065643-129.402185c0.3776 0.061398 0.751107 0.135076 1.128707 0.197498l-62.09115-65.027016-62.169945 65.094554c0.127913-0.021489 0.255827-0.047072 0.38374-0.068562L329.689814 141.381399c-4.232394 3.421936-8.368598 6.956436-12.406564 10.599406l-21.237697 22.237467c-1.293459 1.293459-2.660596 2.467191-4.082992 3.53143-45.829791 52.595892-73.593112 121.342626-73.593112 196.582237 0 165.357072 134.056182 299.417347 299.42144 299.417347 57.747215 0 111.666242-16.364713 157.40189-44.685735 4.493338-5.296633 10.42442-9.315156 17.171078-11.462053 35.175127-25.286919 64.641229-58.014298 86.09996-95.874581 0.733711-1.560542 1.568728-3.062755 2.50096-4.494361 23.113417-42.467207 36.247552-91.148953 36.247552-142.899594C817.211307 300.858554 790.739399 233.574125 746.821143 181.476583z"  horiz-adv-x="1024" />

    
    <glyph glyph-name="tuichu" unicode="&#58910;" d="M657.165714 461.774135 792.48 325.106706 418.738286 325.106706C411.168 325.106706 405.024 318.962706 405.024 311.392421 405.024 303.840421 411.168 297.678135 418.738286 297.678135L792.205714 297.678135 657.165714 161.321563C654.496 158.670135 653.179429 155.177563 653.179429 151.666706 653.179429 148.155849 654.532571 144.608421 657.257143 141.920421 662.633143 136.599278 671.300571 136.635849 676.64 142.030135L834.976 301.902135C840.278857 307.204992 840.278857 315.872421 834.976 321.175278L676.64 481.065563C671.318857 486.459849 662.633143 486.514706 657.257143 481.175278 651.881143 475.872421 651.808 467.168421 657.165714 461.774135L657.165714 461.774135ZM519.675429-25.576722C519.675429-18.006437 513.531429-11.862437 505.961143-11.862437L237.472-11.862437 237.472 634.848421 505.961143 634.848421C513.531429 634.848421 519.675429 640.992421 519.675429 648.580992 519.675429 656.132992 513.531429 662.295278 505.961143 662.295278L223.757714 662.295278C216.187429 662.295278 210.043429 656.132992 210.043429 648.580992L210.043429-25.576722C210.043429-33.147008 216.187429-39.272722 223.757714-39.272722L505.961143-39.272722C513.531429-39.272722 519.675429-33.147008 519.675429-25.576722L519.675429-25.576722Z"  horiz-adv-x="1024" />

    
    <glyph glyph-name="xitongxiaoxi" unicode="&#58934;" d="M511.999994-211.999987C229.228128-211.999987 0 17.228141 0 300.000006S229.228128 812 511.999994 812s511.999994-229.228128 511.999994-511.999994S794.771859-211.999987 511.999994-211.999987zM773.817736 321.210136l-7.001775 40.0138c-2.150454 12.288307-11.20028 22.208555-23.19418 25.383034-10.073852 2.675267-24.103002 3.980899-42.881071 3.980899-1.792045 0-3.622491-0.0128-5.504138-0.038401-2.188855 4.147304-4.505713 8.205005-6.976174 12.185904 11.123478 18.82927 17.779644 32.986424 20.80052 44.161103 3.251281 12.045101-0.742419 24.896622-10.227456 32.922423l-30.912772 26.125453c-5.836946 4.928123-13.094727 7.488187-20.42931 7.488187-4.595315 0-9.21623-0.998425-13.529938-3.046476-10.39386-4.928123-23.053376-13.965149-39.488987-28.224705-4.172904 1.702443-8.40981 3.251281-12.697917 4.672117-3.404885 21.696542-7.360184 36.634515-11.149079 49.550038-3.9937 13.59394-16.39721 22.925373-30.477562 22.925373l-40.346608 0c-14.080352 0-26.483862-9.331433-30.477562-22.925373-3.699292-12.621115-7.564989-27.175079-10.918673-48.090802-4.467312-1.548839-8.947424-3.302483-13.465936-5.260931-15.769994 13.581139-28.557514 22.630965-38.938573 27.559089-4.326508 2.048051-8.947424 3.046476-13.542738 3.046476-7.347384 0-14.630766-2.572864-20.480512-7.526588l-30.899972-26.227855c-9.459436-8.025801-13.440336-20.851721-10.189055-32.871221 2.995275-11.072277 9.817845-25.587839 20.81332-44.225105-2.470462-3.980899-4.80012-8.064202-6.988975-12.211505-1.868847 0.025601-3.686492 0.038401-5.478537 0.038401-18.79087 0-32.83282-1.305633-42.906672-3.980899-11.981099-3.18728-21.030926-13.094727-23.19418-25.383034l-7.001775-40.0266c-2.150454-12.288307 2.982475-24.717418 13.158729-31.834395 6.195355-4.339308 17.344433-10.931473 44.148303-20.365309 0.832021-6.00335 1.945649-11.955499 3.315283-17.856446-2.739268-2.227256-5.516938-4.480112-8.345809-6.78417l-21.030926-17.062826c-12.237106-9.881847-15.475587-27.277482-7.628991-40.961024l20.173304-35.188079c5.824146-10.150654 16.461211-16.0004 27.533488-16.0004 3.852896 0 7.744194 0.704018 11.507488 2.176054l25.267831 9.843446c3.340883 1.292832 6.617765 2.572864 9.856246 3.827296 5.376134-5.081727 11.046676-9.856246 16.986024-14.310758-0.678417-3.481687-1.369634-7.014575-2.073652-10.611465l-5.20973-26.650266c-3.059276-15.488387 5.555339-30.912772 20.288507-36.314507l37.914547-13.901147c3.571289-1.305633 7.244981-1.932848 10.854671-1.932848 11.328283 0 22.157354 6.118553 27.866296 16.614815l13.056326 23.859796c1.728043 3.161679 3.430486 6.259356 5.107328 9.318633 3.737693-0.230406 7.436986-0.345609 11.097877-0.345609 3.660891 0 7.360184 0.115203 11.097877 0.345609 1.676842-3.059276 3.379284-6.156954 5.107328-9.318633l13.056326-23.859796c5.708943-10.483462 16.538013-16.614815 27.866296-16.614815 3.622491 0 7.296182 0.627216 10.867472 1.932848l37.914547 13.901147c14.733168 5.401735 23.360584 20.82612 20.301307 36.314507l-5.20973 26.650266c-0.704018 3.60969-1.395235 7.142578-2.073652 10.611465 5.939348 4.454511 11.60989 9.241831 16.986024 14.310758 3.225681-1.254431 6.502562-2.534463 9.856246-3.827296l25.267831-9.843446c3.763294-1.472037 7.667392-2.176054 11.507488-2.176054 11.072277 0 21.709342 5.849746 27.533488 16.0004l20.173304 35.188079c7.846596 13.683542 4.608115 31.066376-7.628991 40.961024l-21.030926 17.062826c-2.828871 2.304058-5.60654 4.569714-8.345809 6.78417 1.382435 5.900947 2.483262 11.853096 3.315283 17.856446 26.80387 9.433836 37.952948 16.026 44.148303 20.365309C770.822461 296.492719 775.96819 308.921829 773.817736 321.210136zM692.458903 292.53742c-0.435211-19.20048-4.044901-37.581739-10.253056-54.746968 0.256006-0.204805 0.486412-0.38401 0.742419-0.588815 14.374759-11.481887 29.517538-23.808595 46.861971-37.735343l-20.890122-36.199305c-20.736518 8.064202-38.976974 15.027576-56.103802 21.734943-0.268807 0.102403-0.512013 0.204805-0.78082 0.320008-12.81312-15.21958-28.250306-28.109502-45.556338-38.170554 0.064002-0.307208 0.128003-0.588815 0.192005-0.883222 3.635291-18.048451 7.321783-37.248931 11.661091-59.086276l-39.258581-14.297957c-10.701067 19.520488-20.211705 36.583314-29.005525 52.737318-0.153604 0.281607-0.294407 0.563214-0.448011 0.844821-9.651441-1.676842-19.533288-2.726468-29.671141-2.726468-10.137853 0-20.0069 1.049626-29.671141 2.726468-0.153604-0.281607-0.294407-0.563214-0.448011-0.844821-8.80662-16.154004-18.304457-33.21683-29.005525-52.737318l-39.258581 14.297957c4.339308 21.850146 8.025801 41.037825 11.661091 59.086276 0.064002 0.307208 0.128003 0.588815 0.192005 0.883222-17.306032 10.048251-32.743218 22.938173-45.556338 38.170554-0.268807-0.102403-0.512013-0.204805-0.78082-0.320008-17.114028-6.707368-35.367284-13.670742-56.103802-21.734943l-20.890122 36.199305c17.357234 13.926748 32.500012 26.266256 46.874771 37.735343 0.256006 0.204805 0.486412 0.38401 0.742419 0.588815-6.208155 17.165229-9.817845 35.546488-10.253056 54.746968-2.227256 0.691217-4.582515 1.395235-6.720168 2.073652-23.846996 7.654591-42.061851 15.053176-51.175679 21.389334l7.257781 41.165829c7.782594 2.048051 20.237306 3.008075 36.0329 3.008075 4.121703 0 8.473812-0.064002 13.030726-0.192005 4.249706-0.115203 14.41316-1.881647 18.842071-2.099252 6.182554 15.910798 9.677042 33.088827 20.480512 46.580364-2.483262 3.852896-4.928123 7.692992-7.142578 11.315483-11.533088 18.765269-19.430886 34.164054-22.093352 43.969099l32.0008 26.970274c9.177829-4.326508 22.912573-14.566764 39.386584-29.184729 3.148879-2.79047 6.464162-5.427336 9.792245-8.512213 15.078777 8.269007 31.527188 15.168379 48.910022 18.637266 0.563214 4.505713 1.152029 10.649866 1.766444 14.80997 3.21288 21.798945 7.027376 36.82652 11.277082 51.22688l41.767444 0c4.262507-14.40036 8.064202-29.427935 11.289882-51.22688 0.614415-4.160104 1.19043-11.9939 1.766444-16.499612 17.382834-3.468887 33.831245-9.536238 48.910022-17.792445 3.340883 3.084877 6.656166 6.144154 9.792245 8.934623 16.474012 14.617965 30.195955 25.075827 39.386584 29.402335l32.0008-26.867871c-2.662467-9.805045-10.560264-25.139828-22.093352-43.917897-2.214455-3.60969-4.672117-7.436986-7.142578-11.289882 10.80347-13.491537 19.558889-28.647116 25.959049-45.018725 4.582515 0.230406 9.113828 0.435211 13.363534 0.550414 4.556914 0.128003 8.921823 0.192005 13.043526 0.192005 15.782794 0 28.224705-0.947224 36.0073-2.995275l7.257781-41.153028c-9.113828-6.336158-27.341483-13.721943-51.175679-21.389334C697.041417 293.932655 694.698959 293.228637 692.458903 292.53742zM519.961793 392.891928c-49.486037 0-89.602239-40.116202-89.602239-89.602239s40.116202-89.602239 89.602239-89.602239 89.602239 40.116202 89.602239 89.602239S569.447829 392.891928 519.961793 392.891928zM519.961793 239.288089c-35.290482 0-64.001599 28.711117-64.001599 64.001599s28.711117 64.001599 64.001599 64.001599c35.290482 0 64.001599-28.711117 64.001599-64.001599S555.252274 239.288089 519.961793 239.288089z"  horiz-adv-x="1024" />

    
    <glyph glyph-name="xiayibu" unicode="&#59003;" d="M506.83128 273.092164c0.453325 0.410346 0.881067 0.854461 1.315972 1.289366 0.435928 0.435928 0.881067 0.86367 1.292436 1.319042 0.332575 0.36839 0.64059 0.763386 0.959861 1.14815 0.468674 0.562818 0.938372 1.12359 1.370207 1.710968 0.258896 0.352017 0.49528 0.725524 0.741897 1.088798 0.442068 0.649799 0.87902 1.300622 1.277086 1.974981 0.068562 0.116657 0.150426 0.220011 0.217964 0.337691 0.174985 0.302899 0.308015 0.618077 0.472767 0.924045 0.339738 0.630357 0.675382 1.261737 0.977257 1.909489 0.249687 0.534166 0.469698 1.073448 0.691755 1.613754 0.220011 0.539282 0.438998 1.076518 0.63445 1.623987 0.227174 0.63752 0.424672 1.279133 0.615007 1.922792 0.140193 0.476861 0.278339 0.951675 0.399089 1.433652 0.172939 0.686638 0.317225 1.3743 0.449231 2.065032 0.090051 0.474814 0.177032 0.947582 0.248663 1.425466 0.100284 0.673335 0.178055 1.345648 0.240477 2.02103 0.050142 0.529049 0.092098 1.057075 0.118704 1.588171 0.029676 0.60989 0.041956 1.217734 0.040932 1.827625 0.001023 0.608867-0.011256 1.216711-0.040932 1.827625-0.026606 0.531096-0.068562 1.059122-0.118704 1.588171-0.062422 0.674359-0.140193 1.347694-0.240477 2.02103-0.071631 0.477884-0.158612 0.951675-0.248663 1.425466-0.130983 0.690732-0.276293 1.378393-0.449231 2.065032-0.12075 0.481977-0.258896 0.956791-0.399089 1.433652-0.190335 0.64366-0.387833 1.285273-0.615007 1.922792-0.194428 0.548492-0.413416 1.085728-0.63445 1.623987-0.222057 0.540306-0.442068 1.080611-0.691755 1.613754-0.301875 0.647753-0.63752 1.279133-0.977257 1.909489-0.165776 0.305969-0.297782 0.621147-0.472767 0.924045-0.067538 0.11768-0.149403 0.221034-0.217964 0.337691-0.398066 0.674359-0.835018 1.325182-1.277086 1.974981-0.24764 0.363274-0.484024 0.73678-0.741897 1.088798-0.431835 0.587378-0.901533 1.14815-1.370207 1.710968-0.319272 0.38374-0.627287 0.779759-0.959861 1.14815-0.411369 0.454348-0.856507 0.883113-1.292436 1.319042-0.434905 0.434905-0.861624 0.87902-1.315972 1.289366-0.36839 0.332575-0.762363 0.639566-1.146103 0.958838-0.564865 0.469698-1.12666 0.940418-1.716084 1.373277-0.344854 0.25378-0.711198 0.485047-1.068332 0.727571-0.659009 0.449231-1.320065 0.892323-2.004657 1.296529-0.112564 0.066515-0.211824 0.145309-0.325411 0.210801l-381.488551 220.25131c-17.553795 10.138918-40.005133 4.121877-50.14405-13.434987-10.134825-17.557888-4.118807-40.008202 13.434987-50.14405l326.427514-188.461279L82.375126 111.853899c-17.553795-10.134825-23.570835-32.586163-13.434987-50.14405 10.138918-17.557888 32.590256-23.573905 50.14405-13.434987l381.488551 220.25131c0.113587 0.065492 0.212848 0.144286 0.325411 0.210801 0.684592 0.404206 1.345648 0.846274 2.004657 1.296529 0.356111 0.242524 0.722454 0.474814 1.068332 0.727571 0.588401 0.432859 1.151219 0.903579 1.716084 1.373277C506.068917 272.452597 506.463913 272.760612 506.83128 273.092164zM959.356724 302.142803c-0.026606 0.531096-0.068562 1.060145-0.118704 1.588171-0.062422 0.674359-0.140193 1.345648-0.240477 2.018983-0.071631 0.478907-0.158612 0.952698-0.248663 1.428535-0.130983 0.690732-0.276293 1.37737-0.448208 2.062985-0.12075 0.481977-0.25992 0.958838-0.400113 1.435699-0.189312 0.642636-0.38681 1.283226-0.613984 1.919722-0.194428 0.548492-0.413416 1.086751-0.63445 1.626034-0.222057 0.541329-0.443092 1.080611-0.692778 1.6158-0.300852 0.64673-0.636496 1.277086-0.975211 1.906419-0.165776 0.306992-0.298805 0.62217-0.473791 0.926092-0.067538 0.11768-0.149403 0.221034-0.217964 0.337691-0.398066 0.674359-0.835018 1.325182-1.277086 1.974981-0.24764 0.363274-0.484024 0.73678-0.74292 1.088798-0.431835 0.587378-0.901533 1.14815-1.370207 1.710968-0.319272 0.38374-0.627287 0.779759-0.959861 1.14815-0.410346 0.454348-0.855484 0.88209-1.291412 1.318018-0.435928 0.435928-0.86367 0.880043-1.318018 1.291412-0.367367 0.331551-0.76134 0.638543-1.144056 0.956791-0.564865 0.470721-1.127683 0.941442-1.717108 1.375324-0.345877 0.25378-0.712221 0.485047-1.069355 0.728594-0.657986 0.449231-1.319042 0.8913-2.00261 1.295506-0.112564 0.066515-0.212848 0.145309-0.325411 0.210801l-381.488551 220.25131c-17.553795 10.138918-40.005133 4.121877-50.14405-13.434987-10.134825-17.557888-4.118807-40.008202 13.434987-50.14405l326.427514-188.461279L522.875698 111.853899c-17.553795-10.134825-23.570835-32.586163-13.434987-50.14405 10.138918-17.557888 32.589233-23.573905 50.14405-13.434987l381.488551 220.25131c0.113587 0.065492 0.212848 0.144286 0.325411 0.210801 0.683569 0.403183 1.343601 0.846274 2.00261 1.295506 0.357134 0.243547 0.723477 0.474814 1.069355 0.728594 0.589424 0.432859 1.152243 0.904603 1.717108 1.375324 0.382717 0.318248 0.776689 0.62524 1.144056 0.956791 0.454348 0.411369 0.88209 0.855484 1.318018 1.291412 0.435928 0.435928 0.880043 0.86367 1.291412 1.318018 0.332575 0.36839 0.64059 0.763386 0.959861 1.14815 0.468674 0.562818 0.938372 1.12359 1.370207 1.710968 0.258896 0.352017 0.49528 0.725524 0.74292 1.088798 0.442068 0.649799 0.87902 1.300622 1.277086 1.974981 0.068562 0.116657 0.150426 0.220011 0.217964 0.337691 0.174985 0.303922 0.308015 0.6191 0.473791 0.926092 0.339738 0.629333 0.674359 1.25969 0.975211 1.906419 0.249687 0.534166 0.470721 1.074472 0.692778 1.6158 0.220011 0.539282 0.440022 1.077541 0.63445 1.626034 0.227174 0.636496 0.423649 1.276063 0.613984 1.919722 0.140193 0.476861 0.279363 0.953721 0.400113 1.435699 0.171915 0.685615 0.317225 1.373277 0.448208 2.062985 0.091074 0.474814 0.177032 0.949628 0.248663 1.428535 0.100284 0.672312 0.178055 1.344624 0.240477 2.018983 0.050142 0.529049 0.092098 1.057075 0.118704 1.588171 0.029676 0.60989 0.041956 1.217734 0.040932 1.827625C959.397656 300.925069 959.3864 301.532913 959.356724 302.142803z"  horiz-adv-x="1024" />

    
    <glyph glyph-name="huizhang" unicode="&#59010;" d="M527.983531 795.620961l80.891332-91.074252 113.586988 34.792411 26.605961-118.703519 115.6336-27.629267-35.815717-118.703519 88.004333-81.544201-86.981027-83.208097 34.792411-118.703519-115.6336-27.1565L722.434222 42.467599l-34.766828 13.302981 0-217.96422-159.683862 130.983193-159.588695-130.983193 0 218.987526-36.839023-13.302981-24.559349 120.199593-116.656907 28.179806 34.792411 116.656907-86.981027 84.231403 88.004333 83.590813-35.815717 116.656907 116.656907 27.629267 25.582655 120.750131 113.586988-35.815717L527.983531 795.620961zM459.981764 655.428012l-97.214089 32.745798-23.536043-102.33062-96.190783-23.536043 29.67588-99.260701-74.701352-70.287833 73.678046-70.928423-29.67588-99.260701 98.237395-23.536043 27.629267-103.353926 41.955554 0 0-167.822217 118.191866 95.67913 117.16856-95.67913 0 167.822217 41.955554 0 25.582655 103.353926 99.260701 24.559349-29.67588 99.260701 74.701352 69.905116-75.724659 71.311139 29.67588 98.237395-97.214089 24.559349-21.48943 100.284007-97.214089-31.722492-68.049862 76.747965L459.981764 655.428012zM527.51895 640.585979c-139.028427 0-251.733325-112.704898-251.733325-251.733325 0-139.028427 112.703875-251.733325 251.733325-251.733325s251.735371 112.704898 251.735371 251.733325C779.254322 527.881081 666.5484 640.585979 527.51895 640.585979zM738.322074 388.852654c0-116.422569-94.379531-210.801077-210.801077-210.801077-116.423593 0-210.801077 94.378507-210.801077 210.801077 0 116.422569 94.378507 210.801077 210.801077 210.801077C643.94152 599.653731 738.322074 505.2742 738.322074 388.852654z"  horiz-adv-x="1024" />

    
    <glyph glyph-name="xinzi" unicode="&#58892;" d="M742.9632-76.3456c-126.1568 0-228.7872 102.6304-228.7872 228.7872s102.6304 228.7872 228.7872 228.7872 228.8128-102.6304 228.8128-228.7872S869.12-76.3456 742.9632-76.3456zM742.9632 342.8032c-104.9856 0-190.3872-85.4016-190.3872-190.3872s85.4016-190.3872 190.3872-190.3872 190.4128 85.4016 190.4128 190.3872S847.9488 342.8032 742.9632 342.8032zM439.4752 47.6352 122.624 47.6352c-38.8352 0-70.4 31.5904-70.4 70.4L52.224 605.9456c0 38.8096 31.5648 70.4 70.4 70.4l724.8128 0c38.8352 0 70.4-31.5904 70.4-70.4l0-191.5136-38.4 0L879.4368 605.9456c0 17.6384-14.3616 32-32 32L122.624 637.9456c-17.6384 0-32-14.3616-32-32l0-487.9104c0-17.6384 14.3616-32 32-32l316.8512 0L439.4752 47.6352zM898.6624 563.2192 71.424 563.2192c-10.5984 0-19.2 8.6016-19.2 19.2s8.6016 19.2 19.2 19.2l827.2128 0c10.5984 0 19.2-8.6016 19.2-19.2S909.2608 563.2192 898.6624 563.2192zM739.0464 31.6096c-10.5984 0-19.2 8.6016-19.2 19.2l0 125.8496c0 10.5984 8.6016 19.2 19.2 19.2s19.2-8.6016 19.2-19.2l0-125.8496C758.2464 40.2112 749.6448 31.6096 739.0464 31.6096zM737.0496 141.7152c-4.4032 0-8.8064 1.4848-12.3904 4.5312-8.0896 6.8608-9.088 18.9696-2.2528 27.0592l70.8608 83.7632c6.8352 8.0896 18.9952 9.0624 27.0592 2.2528 8.0896-6.8608 9.088-18.9696 2.2528-27.0592l-70.8608-83.7632C747.9296 144.0448 742.5024 141.7152 737.0496 141.7152zM742.656 141.8688c-5.4272 0-10.8544 2.304-14.6176 6.784l-70.9888 83.6352c-6.8864 8.0896-5.8624 20.1984 2.2016 27.0592 8.064 6.8352 20.224 5.8624 27.0592-2.2016l70.9888-83.6352c6.8864-8.0896 5.8624-20.1984-2.2016-27.0592C751.4624 143.3792 747.0592 141.8688 742.656 141.8688zM793.9072 127.2l-109.696 0c-10.5984 0-19.2 8.6016-19.2 19.2s8.6016 19.2 19.2 19.2l109.696 0c10.5984 0 19.2-8.6016 19.2-19.2S804.5056 127.2 793.9072 127.2zM793.9072 80.4032l-109.696 0c-10.5984 0-19.2 8.6016-19.2 19.2s8.6016 19.2 19.2 19.2l109.696 0c10.5984 0 19.2-8.6016 19.2-19.2S804.5056 80.4032 793.9072 80.4032z"  horiz-adv-x="1024" />

    
    <glyph glyph-name="dengdaichuli" unicode="&#59000;" d="M512 812C229.230933 812 0 582.769067 0 300s229.230933-512 512-512 512 229.230933 512 512S794.769067 812 512 812zM720.6912 91.3088c-6.664533-6.664533-17.467733-6.664533-24.1408 0L503.466667 284.401067c-0.5888 0.5888-1.066667 1.245867-1.553067 1.8944C497.698133 289.4016 494.933333 294.368 494.933333 300L494.933333 607.2c0 9.4208 7.637333 17.066667 17.066667 17.066667s17.066667-7.645867 17.066667-17.066667l0-300.125867 191.624533-191.633067C727.355733 108.776533 727.355733 97.973333 720.6912 91.3088z"  horiz-adv-x="1024" />

    
    <glyph glyph-name="youxiang" unicode="&#58885;" d="M515.347235-147.790606c-246.441808 0-447.775256 201.803145-447.775256 448.813912 0 247.016907 201.333448 448.820052 447.775256 448.820052 247.537769 0 447.772186-201.803145 447.772186-448.820052C963.119421 54.012539 761.783926-147.790606 515.347235-147.790606zM515.347235 705.733745c-222.23857 0-403.77002-180.851974-403.77002-404.709415 0-223.854371 181.53145-404.704298 403.77002-404.704298 223.331461 0 403.764903 181.953052 403.764903 404.704298C919.112138 523.779669 737.580688 705.733745 515.347235 705.733745zM771.107269 91.576063 272.807293 91.576063c-27.599591 0-50.061163 23.131837-50.061163 51.700499L222.74613 458.728094c0 28.553313 22.461571 51.742455 50.061163 51.742455l498.299977 0c27.713178 0 50.061163-23.189142 50.061163-51.742455L821.168432 143.276562C821.168432 114.7079 798.820448 91.576063 771.107269 91.576063zM757.89127 128.623841l-155.777903 142.819776-25.51921-23.131837c-14.886035-13.374612-33.038464-20.247136-54.636365-20.247136-21.48329 0-39.750329 6.872524-54.582129 20.247136l-25.520233 23.131837L286.082644 128.623841 757.89127 128.623841zM259.983219 439.815349l0-285.019429 155.191548 144.485719L259.983219 439.815349zM284.787138 473.422771l198.711737-181.904956c17.34504-15.971763 30.187533-23.904433 38.457894-23.904433s21.112853 7.931646 38.457894 23.904433l198.711737 181.904956L284.787138 473.422771zM783.948739 439.815349 628.757191 299.281639 783.948739 154.79592 783.948739 439.815349z"  horiz-adv-x="1024" />

    
    <glyph glyph-name="denglu" unicode="&#58944;" d="M644.8 337.44c3.456 2.112 6.976 4.032 10.304 6.272 6.784 4.608 13.376 9.536 19.712 14.72s12.416 10.688 18.176 16.512c5.824 5.76 11.328 11.84 16.576 18.176 5.184 6.336 10.048 12.928 14.656 19.712s8.896 13.888 12.864 21.12c3.904 7.232 7.488 14.72 10.752 22.4s6.144 15.488 8.64 23.488c2.496 8 4.608 16.192 6.336 24.512s3.008 16.832 3.904 25.408C767.552 538.464 768 547.168 768 556s-0.448 17.536-1.344 26.176c-0.896 8.576-2.176 17.088-3.904 25.408s-3.84 16.512-6.336 24.512c-2.496 8-5.376 15.872-8.64 23.488s-6.848 15.104-10.752 22.4c-4.032 7.232-8.256 14.336-12.864 21.12s-9.472 13.376-14.656 19.712c-5.248 6.336-10.752 12.352-16.576 18.176-5.76 5.824-11.904 11.328-18.176 16.512s-12.864 10.176-19.712 14.72-13.888 8.896-21.12 12.864-14.72 7.488-22.4 10.752S596.096 797.984 588.096 800.48 571.968 805.088 563.584 806.816c-8.32 1.664-16.832 3.008-25.408 3.904C529.536 811.552 520.832 812 512 812S494.464 811.552 485.824 810.656C477.248 809.824 468.736 808.48 460.416 806.816c-8.32-1.728-16.512-3.84-24.512-6.336C427.904 797.984 420.032 795.104 412.352 791.904s-15.104-6.784-22.4-10.752S375.68 772.896 368.896 768.288s-13.376-9.536-19.712-14.72C342.848 748.32 336.768 742.816 331.008 736.992c-5.824-5.76-11.328-11.84-16.512-18.176-5.248-6.336-10.176-12.928-14.72-19.712S290.816 685.28 286.848 677.984s-7.488-14.72-10.752-22.4S270.016 640.096 267.52 632.096C265.024 624.096 262.912 615.968 261.184 607.584c-1.664-8.32-3.008-16.832-3.904-25.408C256.448 573.536 256 564.832 256 556s0.448-17.536 1.344-26.176c0.896-8.576 2.176-17.088 3.904-25.408 1.728-8.32 3.84-16.512 6.336-24.512 2.496-8 5.376-15.872 8.64-23.488s6.784-15.104 10.752-22.4 8.256-14.336 12.864-21.12 9.536-13.376 14.72-19.712c5.248-6.336 10.688-12.352 16.512-18.176 5.76-5.824 11.84-11.328 18.176-16.512 6.336-5.248 12.928-10.176 19.712-14.72 2.56-1.728 5.312-3.2 8-4.864C199.104 284.768 66.304 123.168 66.304-84l52.992 0c0 192 178.368 389.504 389.504 389.504S898.304 108 898.304-84l52.992 0C951.296 121.568 820.48 282.144 644.8 337.44zM363.904 433.952C360 438.688 356.288 443.616 352.832 448.736s-6.656 10.432-9.6 15.872S337.536 475.616 335.104 481.312 330.56 492.96 328.64 498.976c-1.856 6.016-3.456 12.16-4.736 18.432S321.664 529.952 321.024 536.416C320.32 542.816 320 549.344 320 556s0.32 13.184 1.024 19.584c0.64 6.464 1.6 12.8 2.88 19.008s2.88 12.352 4.736 18.432c1.856 6.016 4.032 11.904 6.464 17.6s5.12 11.328 8.064 16.768 6.144 10.752 9.6 15.872 7.168 10.048 11.072 14.784S371.968 687.328 376.32 691.68s8.896 8.512 13.632 12.416 9.664 7.616 14.784 11.072 10.432 6.656 15.872 9.6 11.072 5.632 16.768 8.064 11.648 4.608 17.6 6.464c6.016 1.856 12.16 3.456 18.432 4.736s12.544 2.24 19.008 2.88C498.816 747.68 505.344 748 512 748s13.184-0.32 19.648-1.024c6.464-0.64 12.8-1.6 19.008-2.88 6.208-1.28 12.352-2.88 18.368-4.736 6.016-1.856 11.904-4.032 17.664-6.464 5.696-2.432 11.328-5.12 16.768-8.064s10.688-6.144 15.808-9.6 10.048-7.168 14.784-11.072 9.344-8.064 13.632-12.416 8.512-8.896 12.416-13.632c3.904-4.736 7.616-9.664 11.072-14.784s6.656-10.432 9.6-15.872 5.632-11.072 8.064-16.768 4.608-11.648 6.528-17.6c1.856-6.016 3.456-12.16 4.736-18.432 1.28-6.272 2.24-12.544 2.88-19.008C703.616 569.184 704 562.656 704 556s-0.384-13.184-1.024-19.584c-0.64-6.464-1.6-12.8-2.88-19.008-1.344-6.272-2.88-12.352-4.736-18.432-1.856-6.016-4.032-11.904-6.528-17.6s-5.12-11.328-8.064-16.768-6.208-10.752-9.6-15.872-7.168-10.048-11.072-14.784c-3.968-4.736-8.128-9.28-12.416-13.632S638.784 411.808 634.048 407.904 624.384 400.288 619.264 396.832s-10.368-6.656-15.808-9.6S592.384 381.536 586.688 379.104c-5.76-2.432-11.648-4.608-17.664-6.464-6.016-1.856-12.16-3.456-18.368-4.736-6.272-1.28-12.608-2.24-19.008-2.88C525.184 364.32 518.656 364 512 364S498.816 364.32 492.416 365.024c-6.464 0.64-12.8 1.6-19.008 2.88S460.992 370.784 454.976 372.64C448.96 374.56 443.072 376.672 437.312 379.104s-11.328 5.12-16.768 8.064-10.752 6.144-15.872 9.6S394.688 404 389.952 407.904 380.672 415.968 376.32 420.32 367.808 429.216 363.904 433.952z"  horiz-adv-x="1024" />

    
    <glyph glyph-name="icontianjia01" unicode="&#58916;" d="M510.833431 749.304076c-247.644193 0-448.406636-200.762443-448.406636-448.406636 0-247.65545 200.762443-448.416869 448.406636-448.416869 247.65545 0 448.416869 200.76142 448.416869 448.416869C959.2503 548.541633 758.488881 749.304076 510.833431 749.304076zM779.544429 249.887672 560.358381 249.887672l0-219.186048-102.008278 0L458.350103 249.887672 239.164055 249.887672l0 102.008278 219.186048 0L458.350103 571.081998l102.008278 0 0-219.186048 219.186048 0L779.544429 249.887672z"  horiz-adv-x="1024" />

    
    <glyph glyph-name="jjshchakanguo" unicode="&#58933;" d="M511.678682 750.576045c-248.094448 0-449.215048-201.1206-449.215048-449.215048 0-248.091378 201.1206-449.203792 449.215048-449.203792s449.215048 201.113437 449.215048 449.203792C960.89373 549.456469 759.77313 750.576045 511.678682 750.576045zM511.682775 137.035418c-173.666318 0-314.450738 67.039859-314.450738 149.737326s140.78442 179.682335 314.450738 179.682335 314.449715-96.985892 314.449715-179.682335S685.349093 137.035418 511.682775 137.035418zM511.682775 419.096469c-66.158792 0-119.792317-53.632501-119.792317-119.791294 0-66.161862 53.632501-119.791294 119.792317-119.791294 66.158792 0 119.788224 53.629431 119.788224 119.791294C631.470999 365.463967 577.841567 419.096469 511.682775 419.096469z"  horiz-adv-x="1024" />

    
    <glyph glyph-name="wancheng" unicode="&#58896;" d="M522.768 744.351c-248.906 0-451.408-202.493-451.408-451.407 0-248.915 202.502-451.408 451.408-451.408 248.906 0 451.407 202.492 451.407 451.408C974.175 541.859 771.674 744.351 522.768 744.351zM522.768-89.017c-210.615 0-381.959 171.347-381.959 381.96 0 210.614 171.346 381.959 381.959 381.959 210.613 0 381.959-171.346 381.959-381.959C904.727 82.33 733.381-89.017 522.768-89.017zM731.717 473.361c-14.723 12.292-36.619 10.274-48.896-4.476L435.806 172.072 307.558 291.214c-14.055 13.039-36.03 12.227-49.076-1.812-13.056-14.057-12.242-36.029 1.805-49.085L415.4 96.233c6.441-5.969 14.895-9.274 23.634-9.274 0.737 0 1.483 0.017 2.221 0.068 9.521 0.608 18.371 5.119 24.466 12.443l270.475 324.992C748.462 439.197 746.46 461.102 731.717 473.361z"  horiz-adv-x="1024" />

    
    <glyph glyph-name="quxiao1" unicode="&#58939;" d="M512-103.2c-222.6688 0-403.2 180.5824-403.2 403.2S289.3312 703.2 512 703.2 915.2 522.6176 915.2 300 734.6688-103.2 512-103.2L512-103.2 512-103.2zM512 760.8C257.5104 760.8 51.2 554.592 51.2 300s206.2848-460.8 460.8-460.8c254.4896 0 460.8 206.208 460.8 460.8S766.4896 760.8 512 760.8L512 760.8 512 760.8zM676.6592 464.7616c-11.3408 11.2128-29.696 11.2128-41.0624 0l-123.776-123.8528-122.0096 122.112c-11.264 11.2384-29.5168 11.2384-40.704 0-11.264-11.2128-11.264-29.6448 0-40.9088l121.984-121.8048-122.8544-123.008c-11.3152-11.2128-11.3152-29.6448 0-41.1648 11.3408-11.2128 29.7216-11.2128 41.0624 0l122.8544 122.9824 122.0096-122.112c11.2384-11.2384 29.5168-11.2384 40.7552 0 11.2384 11.2128 11.2384 29.6448 0 40.9088l-122.0352 121.8048 123.7504 123.8528C687.9744 435.0656 687.9744 453.1904 676.6592 464.7616L676.6592 464.7616 676.6592 464.7616zM676.6592 464.7616"  horiz-adv-x="1024" />

    
    <glyph glyph-name="wode" unicode="&#58995;" d="M309.52 317.88c-1.94 0-3.47-0.28-4.67-0.76 1.63 0.49 3.37 0.76 5.16 0.76L309.52 317.88zM845.13 104.48c0.05 0.99 0.18 1.96 0.39 2.9C845.29 106.95 845.17 106.03 845.13 104.48zM880.86 498.71c0.01 0.04 0.01 0.09 0.01 0.13l0 0.46C880.87 499.1 880.87 498.9 880.86 498.71zM845.11 498.77c0-0.04 0-0.08 0.01-0.12-0.01 0.21-0.01 0.43-0.01 0.65L845.11 498.77zM866.673-37.43c-5.03 37.45-16.03 73.61-32.69 107.48-3.26 6.62-6.71 13.13-10.37 19.51-0.01 0.02-0.02 0.04-0.04 0.06-15.86 26.86-35.32 51.8-58 74.06l-0.01 0.01c-4.93 4.84-10.01 9.56-15.24 14.14-37.29 32.68-80.34 56.91-126.25 71.65 8.31 4.6 16.35 9.76 24.07 15.47 8.79 6.48 17.16 13.68 25.03 21.55 41.39 41.39 64.19 96.43 64.19 154.97 0 58.54-22.8 113.58-64.19 154.97-40.64 40.64-94.44 63.35-151.78 64.17-0.91 0.01-1.82 0.02-2.73 0.02-0.91 0-1.82-0.01-2.73-0.02-57.34-0.82-111.14-23.53-151.78-64.17-41.39-41.39-64.19-96.43-64.19-154.97 0-58.54 22.8-113.58 64.19-154.97 7.87-7.87 16.24-15.07 25.03-21.55 7.72-5.71 15.76-10.87 24.07-15.47-45.91-14.74-88.96-38.97-126.25-71.65-5.23-4.58-10.31-9.3-15.24-14.14-22.7-22.28-42.18-47.24-58.05-74.13-3.66-6.38-7.11-12.89-10.37-19.51-16.66-33.87-27.66-70.03-32.69-107.48-1.61-12 6.81-23.03 18.8-24.64 0.99-0.13 1.98-0.2 2.95-0.2 0.89 0 1.76 0.05 2.63 0.16 8.67 1.89 15.67 8.96 17.03 18.25 10.1 69.32 43.14 132.31 90.63 180.28 56.36 56.95 133.07 92.74 215.97 92.88l0.47 0c82.72-0.28 159.25-36.04 215.5-92.88 47.49-47.97 80.53-110.96 90.63-180.28 1.36-9.27 8.33-16.33 16.98-18.24 0.02 0 0.03-0.01 0.05-0.01 0.87-0.11 1.74-0.16 2.63-0.16 0.97 0 1.96 0.07 2.95 0.2C859.863-60.46 868.283-49.43 866.673-37.43zM518.193 266.14c-0.44 0-0.88 0-1.32 0.01-81.8 0.6-154.73 57.43-174.66 133.66-0.22 0.83-0.44 1.67-0.64 2.51-3.12 12.6-4.78 25.7-4.78 39.15 0 13.45 1.66 26.7 4.78 39.52 0.2 0.86 0.42 1.71 0.64 2.56 20.04 78.14 93.65 140.25 175.98 140.25l0.94 0c82.33 0 155.94-62.11 175.98-140.25 0.22-0.85 0.44-1.7 0.64-2.56 3.12-12.82 4.78-26.07 4.78-39.52 0-13.45-1.66-26.55-4.78-39.15-0.2-0.84-0.42-1.68-0.64-2.51-19.93-76.23-92.86-133.06-174.66-133.66C519.703 266.14 518.953 266.14 518.193 266.14z"  horiz-adv-x="1024" />

    
    <glyph glyph-name="jia1" unicode="&#58990;" d="M828.570517 618.262554C653.827681 793.003344 369.530706 793.003344 194.789916 618.262554c-174.742836-174.742836-174.742836-459.039811 0-633.781624 174.741813-174.74386 459.037764-174.74386 633.781624 0C1003.31233 159.222743 1003.31233 443.518694 828.570517 618.262554zM783.098883 29.953587c-149.664671-149.664671-393.19415-149.638065-542.836309 0-149.661601 149.664671-149.661601 393.172661 0.002047 542.834262 149.640112 149.639089 393.169591 149.663648 542.834262 0C932.737972 423.145691 932.737972 179.594723 783.098883 29.953587zM740.768799 331.951713l-196.247616 0.317225 1.065262 194.684004c0.110517 17.676591-14.148231 32.074509-31.825846 32.185027-17.678638 0.112564-32.095999-14.167674-32.187073-31.824823l-1.087774-194.932668-193.325054 0.293689c-17.701151 0-32.050973-14.259772-32.050973-31.958876-0.023536-17.676591 14.283308-32.029484 31.960922-32.051997l193.053877-0.293689-1.042749-193.302541c-0.091074-17.702174 14.146185-32.072463 31.825846-32.188096 8.918114-0.044002 16.97665 3.533476 22.816658 9.373485 5.748934 5.745864 9.3039 13.694907 9.370415 22.452361l1.063215 193.554274 196.515722-0.319272c8.851599-0.020466 16.863063 3.554966 22.681582 9.370415 5.794983 5.794983 9.346879 13.787004 9.368368 22.590508C772.753257 317.579377 758.469949 331.907711 740.768799 331.951713z"  horiz-adv-x="1024" />

    
    <glyph glyph-name="meiriyicai" unicode="&#58902;" d="M224.058247-212.000029c-36.9965 0-80.302481 22.22658-80.302481 85.034591L143.755766 226.078684 70.479752 226.078684c-13.335948 0-28.392663 8.890632-40.294638 23.660552C17.709551 265.226143 10.826481 285.301764 10.826481 306.09437l0 9.320824L482.603556 803.682957C488.052653 809.132054 495.939504 812 505.833917 812c11.184988 0 19.645428-2.867946 25.237923-8.46044 1.720767-1.720767 426.750327-434.350383 475.21861-483.67905l6.596275-6.739673 0-9.320824c0-21.366196-3.584932-37.856884-11.041591-50.189051-9.751016-16.347291-26.241704-25.38132-46.317324-25.38132l-71.125055 0-1.147178-358.206424-0.573589-2.581151c-0.430192-2.007562-5.018905-19.932223-17.207674-38.287076-17.924661-26.95869-43.019186-41.155021-72.702425-41.155021L618.400787-212.000029l0 22.943566c0.143397 90.053496 0.286795 325.942034 0 336.266639-0.143397 5.3057-5.449097 19.071839-11.471783 19.071839L417.787982 166.282015c-4.158521 0-12.618961-7.886851-12.618961-18.354853l0-359.927191L229.650741-212.000029C228.360166-211.856631 226.496001-212.000029 224.058247-212.000029M72.917506 271.965816l116.868789 0 0-398.931253c0-9.751016 0-39.147459 34.415349-39.147459 1.147178 0 1.864165 0 2.150959 0l1.433973 0.143397 1.003781 0L359.281889-165.969499 359.281889 148.213957c0 34.128554 27.388882 64.241985 58.506093 64.241985l189.141022 0c18.211455 0 34.271952-9.320824 45.170146-26.241704 8.46044-13.19255 11.758578-27.962471 12.045372-37.283295 0.286795-11.328386 0.143397-240.047059 0-314.757046l128.340572 0c29.683238 0 41.872008 32.981376 44.739954 42.158802l1.147178 398.07087 116.868789 0c5.162302 0 6.022686 1.433973 7.026467 3.011343 1.290576 2.294357 3.441535 7.169864 4.158521 17.494469-53.630585 54.490969-401.369007 408.538872-459.731703 467.905348L57.430599 297.63393C60.01175 282.290421 69.475971 274.116775 72.917506 271.965816"  horiz-adv-x="1024" />

    
    <glyph glyph-name="collect" unicode="&#58903;" d="M128-160v896h768v-896l-384 167.296-384-167.296zM512 38.592l355.776-155.136-0 823.872h-711.616v-823.936l355.84 155.2zM676.544 109.056l-164.544 77.696-164.544-77.568 22.528 181.376-124.352 133.504 178.688 34.624 87.68 159.744 87.744-159.936 178.688-34.56-124.416-133.504 22.528-181.376zM512 218.368l130.24-61.376-17.856 143.36 98.112 105.344-140.992 27.2-69.504 126.72-69.376-126.656-141.056-27.2 98.048-105.344-17.792-143.296 130.176 61.248z"  horiz-adv-x="1024" />

    
    <glyph glyph-name="yanzhengma" unicode="&#58981;" d="M918.090878 544.317425c-36.099173 2.492774-72.380494 9.273201-103.496166 19.237133-10.075473 3.03001-20.161179 6.388501-30.306236 10.021238-21.385053 6.29845-50.481741 18.791995-83.506902 36.592406-0.354064 0.161682-0.704035 0.364297-1.052982 0.552585-7.763824 4.190439-15.706727 8.66331-23.793916 13.412474-10.898211 6.243191-21.689998 12.902868-32.462343 19.84293-0.417509 0.281409-0.829901 0.533143-1.237177 0.806365-7.738241 4.997827-15.443737 10.158361-23.092951 15.518438-4.976338 3.413749-9.959839 7.051603-14.945387 10.659781-3.748371 2.7486-7.496741 5.330402-11.248182 8.16496-27.427676 20.48659-54.499242 43.471071-79.849606 68.233034-25.350364-24.761963-52.426023-47.746444-79.853699-68.233034-3.744277-2.833535-7.498788-5.41636-11.246135-8.16496-4.991688-3.608178-9.970072-7.246031-14.945387-10.659781-7.652284-5.360078-15.356756-10.520611-23.094998-15.518438-0.405229-0.273223-0.824785-0.524956-1.232061-0.806365-10.780531-6.941086-21.564132-13.599739-32.464389-19.84293-8.090259-4.748141-16.030092-9.222035-23.798009-13.412474-0.345877-0.187265-0.704035-0.38988-1.046842-0.552585-33.025161-17.800411-62.127989-30.292933-83.515089-36.592406-10.138918-3.637854-20.216437-6.992251-30.302143-10.021238-31.118741-9.963932-67.390853-16.744359-103.496166-19.237133l-0.086981 0c1.052982-16.181541 2.13871-37.645388 3.403516-60.882626 0.200568 0 0.434905 0 0.669242 0.035816 6.091742-86.72827 23.472598-210.093972 49.694819-282.57782 1.174756-3.166109 2.172479-6.471388 3.347235-9.605775 0.550539-1.473561 1.196245-2.837628 1.750877-4.303003 62.763462-162.03849 171.776272-279.94076 302.786071-323.156004l0-0.450255c17.316387-5.716188 31.905664-9.249665 43.426045-11.467169 11.518335 2.223644 26.115797 5.750981 43.432185 11.467169l0 0.450255c131.011846 43.215244 240.017492 161.117514 302.788118 323.156004 0.554632 1.475608 1.198292 2.829442 1.757017 4.303003 1.166569 3.134387 2.168386 6.439666 3.339048 9.605775 26.227338 72.484871 43.60717 195.84955 49.700959 282.57782 0.236384-0.033769 0.473791-0.033769 0.669242-0.033769 1.26276 23.235191 2.343371 44.696991 3.3984 60.880579L918.090878 544.317425zM870.734314 502.425316l-0.509606-9.497305c-0.51984-2.166339-0.86367-4.379751-1.02126-6.622838-5.674233-80.730673-21.61018-200.398146-47.276746-271.336802-0.710175-1.920746-1.375324-3.885494-2.034333-5.847172-0.411369-1.221828-0.816598-2.449795-1.445932-4.049223-0.524956-1.232061-1.036609-2.467191-1.38351-3.396353C758.704798 51.029602 658.351206-57.434715 541.728068-95.903865c-1.886977-0.620124-3.708462-1.359974-5.458315-2.200108-7.915273-2.473331-15.665795-4.582365-23.177885-6.302543-7.460925 1.709945-15.179724 3.810792-23.077601 6.272867-1.77646 0.855484-3.626597 1.599428-5.544273 2.230808C367.840716-57.434715 267.48917 51.029602 209.243605 201.400355c-0.458441 1.206478-0.940418 2.37714-1.692548 4.14746-0.443092 1.178849-0.840134 2.394537-1.251503 3.610224-0.663102 1.963725-1.332345 3.931542-1.934049 5.560646-25.759687 71.198575-41.694611 190.869119-47.364751 271.582395-0.157589 2.251274-0.50142 4.473895-1.027399 6.644327l-0.497327 9.296737c-0.078795 1.493004-0.157589 2.974751-0.236384 4.446265 24.62177 3.805676 48.370661 9.30083 69.956282 16.21838 10.130731 3.045359 20.419052 6.435573 31.414477 10.353812 25.206078 7.576559 56.437383 21.220301 90.478687 39.532365 0.590448 0.302899 1.155313 0.603751 1.654686 0.877997 8.228405 4.439102 16.647145 9.182127 24.809035 13.975293 10.709923 6.132674 21.985734 13.023618 34.475186 21.064758 0.349971 0.224104 0.952698 0.611937 1.296529 0.846274 8.204869 5.300726 16.375969 10.776438 24.12035 16.205077 4.546549 3.114944 9.094122 6.402827 13.650905 9.699919l2.443655 1.769296 4.041036 2.912329c2.581802 1.847068 5.16258 3.699252 7.535627 5.495154 17.894555 13.369495 35.278481 27.453259 51.984978 42.119283 16.687054-14.650675 34.022884-28.704762 51.797713-41.980113 2.565429-1.936095 5.127787-3.776 7.691169-5.609765l4.27742-3.085268 1.552356-1.125637c4.77884-3.462868 9.56075-6.92369 13.94971-9.928117 8.117888-5.693676 16.301268-11.17348 23.730471-15.962553l2.059915-1.345648c12.386098-7.980765 23.663956-14.874779 34.072003-20.836561 8.576329-5.03262 16.994046-9.774621 25.015743-14.103206 0.399089-0.217964 0.950651-0.50756 1.534959-0.808412 34.167171-18.404162 65.523319-32.114418 90.813309-39.71963 11.014868-3.921309 21.271466-7.30129 30.587646-10.091846 22.11774-7.083326 46.068222-12.641925 70.781066-16.470113C870.888833 505.282387 870.812085 503.857944 870.734314 502.425316zM711.261253 400.344383 476.928227 160.168278 356.968088 283.132844c-8.311293 8.515954-21.772886 8.515954-30.084179 0-8.311293-8.523117-8.311293-22.320355 0-30.839379l135.00274-138.378627c4.155646-4.260024 9.597589-6.390547 15.041578-6.390547 5.443989 0 10.886955 2.130524 15.040555 6.390547l249.374604 255.592212c8.311293 8.515954 8.311293 22.316262 0 30.837332C733.034139 408.862383 719.571523 408.862383 711.261253 400.344383z"  horiz-adv-x="1024" />

    
    <glyph glyph-name="zhiwei" unicode="&#58893;" d="M400.56832 788.708096 647.215104 788.708096 594.096128 564.820736 448 564.820736 400.56832 781.11616 400.56832 788.708096ZM523.896832-184.612096 284.831744 16.507648 448 521.188096 595.992576 521.188096 757.264384 10.81216 523.896832-184.612096ZM846.432256 145.525504 778.60864 145.525504 675.672064 439.603968 846.432256 211.923712 846.432256 145.525504ZM565.633024 104.295168"  horiz-adv-x="1024" />

    
    </font>
</defs>
</svg>
